<svg width="350" height="220" viewBox="0 0 350 220" fill="none" xmlns="http://www.w3.org/2000/svg">
<g clip-path="url(#clip0_206_129)">
<rect width="350" height="220" rx="12" fill="url(#paint0_linear_206_129)"/>
<path d="M21.084 191.156C20.476 191.156 19.94 191.028 19.476 190.772C19.012 190.516 18.672 190.144 18.456 189.656L19.404 189.104C19.652 189.744 20.212 190.064 21.084 190.064C21.62 190.064 22.04 189.936 22.344 189.68C22.648 189.424 22.8 189.044 22.8 188.54V182.6H23.904V188.54C23.904 189.38 23.636 190.028 23.1 190.484C22.572 190.932 21.9 191.156 21.084 191.156ZM30.3928 185H31.4368V191H30.3928V189.968C29.8728 190.76 29.1168 191.156 28.1248 191.156C27.2848 191.156 26.5688 190.852 25.9768 190.244C25.3848 189.628 25.0888 188.88 25.0888 188C25.0888 187.12 25.3848 186.376 25.9768 185.768C26.5688 185.152 27.2848 184.844 28.1248 184.844C29.1168 184.844 29.8728 185.24 30.3928 186.032V185ZM28.2568 190.148C28.8648 190.148 29.3728 189.944 29.7808 189.536C30.1888 189.12 30.3928 188.608 30.3928 188C30.3928 187.392 30.1888 186.884 29.7808 186.476C29.3728 186.06 28.8648 185.852 28.2568 185.852C27.6568 185.852 27.1528 186.06 26.7448 186.476C26.3368 186.884 26.1328 187.392 26.1328 188C26.1328 188.608 26.3368 189.12 26.7448 189.536C27.1528 189.944 27.6568 190.148 28.2568 190.148ZM35.8386 191.156C34.9346 191.156 34.1826 190.856 33.5826 190.256C32.9826 189.648 32.6826 188.896 32.6826 188C32.6826 187.104 32.9826 186.356 33.5826 185.756C34.1826 185.148 34.9346 184.844 35.8386 184.844C36.4306 184.844 36.9626 184.988 37.4346 185.276C37.9066 185.556 38.2586 185.936 38.4906 186.416L37.6146 186.92C37.4626 186.6 37.2266 186.344 36.9066 186.152C36.5946 185.96 36.2386 185.864 35.8386 185.864C35.2386 185.864 34.7346 186.068 34.3266 186.476C33.9266 186.884 33.7266 187.392 33.7266 188C33.7266 188.6 33.9266 189.104 34.3266 189.512C34.7346 189.92 35.2386 190.124 35.8386 190.124C36.2386 190.124 36.5986 190.032 36.9186 189.848C37.2386 189.656 37.4826 189.4 37.6506 189.08L38.5386 189.596C38.2826 190.068 37.9146 190.448 37.4346 190.736C36.9546 191.016 36.4226 191.156 35.8386 191.156ZM44.6453 191H43.3493L40.6133 188.156V191H39.5693V182.6H40.6133V187.652L43.2053 185H44.5493L41.6813 187.904L44.6453 191ZM49.8402 189.944H53.4642V191H48.7242V182.6H49.8402V189.944ZM54.9732 188.48C55.0772 189.016 55.3212 189.432 55.7052 189.728C56.0972 190.024 56.5772 190.172 57.1452 190.172C57.9372 190.172 58.5132 189.88 58.8732 189.296L59.7612 189.8C59.1772 190.704 58.2972 191.156 57.1212 191.156C56.1692 191.156 55.3932 190.86 54.7932 190.268C54.2012 189.668 53.9052 188.912 53.9052 188C53.9052 187.096 54.1972 186.344 54.7812 185.744C55.3652 185.144 56.1212 184.844 57.0492 184.844C57.9292 184.844 58.6452 185.156 59.1972 185.78C59.7572 186.396 60.0372 187.14 60.0372 188.012C60.0372 188.164 60.0252 188.32 60.0012 188.48H54.9732ZM57.0492 185.828C56.4892 185.828 56.0252 185.988 55.6572 186.308C55.2892 186.62 55.0612 187.04 54.9732 187.568H58.9812C58.8932 187 58.6692 186.568 58.3092 186.272C57.9492 185.976 57.5292 185.828 57.0492 185.828ZM68.0709 185H69.1629L67.3029 191H66.2349L64.8309 186.56L63.4269 191H62.3589L60.4989 185H61.5909L62.9109 189.56L64.3269 185H65.3349L66.7509 189.572L68.0709 185ZM70.7653 183.908C70.5653 183.908 70.3973 183.84 70.2613 183.704C70.1253 183.568 70.0573 183.404 70.0573 183.212C70.0573 183.02 70.1253 182.856 70.2613 182.72C70.3973 182.576 70.5653 182.504 70.7653 182.504C70.9573 182.504 71.1213 182.576 71.2573 182.72C71.3933 182.856 71.4613 183.02 71.4613 183.212C71.4613 183.404 71.3933 183.568 71.2573 183.704C71.1213 183.84 70.9573 183.908 70.7653 183.908ZM70.2373 191V185H71.2813V191H70.2373ZM73.7623 186.62C73.7623 186.852 73.8783 187.04 74.1103 187.184C74.3423 187.32 74.6223 187.432 74.9503 187.52C75.2783 187.6 75.6063 187.696 75.9343 187.808C76.2623 187.912 76.5423 188.096 76.7743 188.36C77.0063 188.616 77.1223 188.948 77.1223 189.356C77.1223 189.9 76.9103 190.336 76.4863 190.664C76.0703 190.992 75.5343 191.156 74.8783 191.156C74.2943 191.156 73.7943 191.028 73.3783 190.772C72.9623 190.516 72.6663 190.176 72.4903 189.752L73.3903 189.236C73.4863 189.524 73.6663 189.752 73.9303 189.92C74.1943 190.088 74.5103 190.172 74.8783 190.172C75.2223 190.172 75.5063 190.108 75.7303 189.98C75.9543 189.844 76.0663 189.636 76.0663 189.356C76.0663 189.124 75.9503 188.94 75.7183 188.804C75.4863 188.66 75.2063 188.548 74.8783 188.468C74.5503 188.38 74.2223 188.28 73.8943 188.168C73.5663 188.056 73.2863 187.872 73.0543 187.616C72.8223 187.36 72.7063 187.032 72.7063 186.632C72.7063 186.112 72.9063 185.684 73.3063 185.348C73.7143 185.012 74.2223 184.844 74.8303 184.844C75.3183 184.844 75.7503 184.956 76.1263 185.18C76.5103 185.396 76.7983 185.7 76.9903 186.092L76.1143 186.584C75.8983 186.072 75.4703 185.816 74.8303 185.816C74.5343 185.816 74.2823 185.888 74.0743 186.032C73.8663 186.168 73.7623 186.364 73.7623 186.62Z" fill="white"/>
<path d="M21.564 106.4H23.004V119H21.348V108.2L18.666 108.992L18.252 107.552L21.564 106.4ZM25.064 119V117.632L29.51 113.096C30.698 111.908 31.292 110.888 31.292 110.036C31.292 109.328 31.076 108.776 30.644 108.38C30.212 107.984 29.684 107.786 29.06 107.786C27.872 107.786 27.008 108.35 26.468 109.478L25.064 108.65C25.46 107.834 26.006 107.216 26.702 106.796C27.41 106.376 28.19 106.166 29.042 106.166C30.098 106.166 31.016 106.514 31.796 107.21C32.576 107.906 32.966 108.842 32.966 110.018C32.966 111.29 32.216 112.676 30.716 114.176L27.494 117.38H33.2V119H25.064ZM39.4204 111.566C40.3804 111.746 41.1664 112.16 41.7784 112.808C42.3904 113.456 42.6964 114.278 42.6964 115.274C42.6964 116.498 42.2764 117.464 41.4364 118.172C40.5964 118.88 39.5764 119.234 38.3764 119.234C37.4164 119.234 36.5644 119.018 35.8204 118.586C35.0764 118.142 34.5484 117.506 34.2364 116.678L35.6404 115.85C36.0124 117.014 36.9244 117.596 38.3764 117.596C39.1564 117.596 39.7924 117.392 40.2844 116.984C40.7764 116.576 41.0224 116.006 41.0224 115.274C41.0224 114.542 40.7764 113.972 40.2844 113.564C39.7924 113.144 39.1564 112.934 38.3764 112.934H37.9444L37.2784 111.908L40.1944 107.966H34.5964V106.4H42.1564V107.876L39.4204 111.566ZM53.7788 115.04V116.606H52.2488V119H50.5748V116.606H44.1488V115.04L48.6668 106.4H50.4668L45.9488 115.04H50.5748V111.476H52.2488V115.04H53.7788Z" fill="white"/>
<path d="M80.86 111.314C82.048 111.314 83.05 111.668 83.866 112.376C84.694 113.072 85.108 114.038 85.108 115.274C85.108 116.498 84.688 117.464 83.848 118.172C83.008 118.88 81.988 119.234 80.788 119.234C79.828 119.234 78.97 119.006 78.214 118.55C77.458 118.082 76.93 117.41 76.63 116.534L78.052 115.724C78.22 116.336 78.544 116.804 79.024 117.128C79.504 117.44 80.092 117.596 80.788 117.596C81.58 117.596 82.222 117.392 82.714 116.984C83.206 116.576 83.452 116.006 83.452 115.274C83.452 114.542 83.206 113.972 82.714 113.564C82.222 113.144 81.592 112.934 80.824 112.934H77.26L77.728 106.4H84.622V107.966H79.24L79.024 111.314H80.86ZM90.6154 110.756C91.8754 110.756 92.9134 111.152 93.7294 111.944C94.5454 112.724 94.9534 113.738 94.9534 114.986C94.9534 116.234 94.5454 117.254 93.7294 118.046C92.9134 118.838 91.8754 119.234 90.6154 119.234C89.3434 119.234 88.2994 118.838 87.4834 118.046C86.6794 117.254 86.2774 116.234 86.2774 114.986C86.2774 114.014 86.5294 113.174 87.0334 112.466L91.0834 106.4H92.9914L90.0214 110.792C90.2854 110.768 90.4834 110.756 90.6154 110.756ZM88.6714 116.912C89.1754 117.392 89.8234 117.632 90.6154 117.632C91.4074 117.632 92.0494 117.392 92.5414 116.912C93.0454 116.42 93.2974 115.778 93.2974 114.986C93.2974 114.194 93.0454 113.558 92.5414 113.078C92.0494 112.598 91.4074 112.358 90.6154 112.358C89.8114 112.358 89.1634 112.598 88.6714 113.078C88.1794 113.558 87.9334 114.194 87.9334 114.986C87.9334 115.778 88.1794 116.42 88.6714 116.912ZM94.6931 106.4H102.559V107.894L97.9691 119H96.2231L100.777 107.984H94.6931V106.4ZM109.834 112.484C110.446 112.796 110.926 113.216 111.274 113.744C111.622 114.272 111.796 114.872 111.796 115.544C111.796 116.696 111.394 117.602 110.59 118.262C109.786 118.91 108.748 119.234 107.476 119.234C106.216 119.234 105.184 118.91 104.38 118.262C103.576 117.602 103.174 116.696 103.174 115.544C103.174 114.872 103.348 114.272 103.696 113.744C104.044 113.216 104.524 112.796 105.136 112.484C104.104 111.836 103.588 110.918 103.588 109.73C103.588 108.59 103.966 107.714 104.722 107.102C105.49 106.478 106.408 106.166 107.476 106.166C108.556 106.166 109.474 106.478 110.23 107.102C110.998 107.714 111.382 108.59 111.382 109.73C111.382 110.918 110.866 111.836 109.834 112.484ZM107.476 107.768C106.84 107.768 106.306 107.936 105.874 108.272C105.454 108.608 105.244 109.106 105.244 109.766C105.244 110.402 105.46 110.9 105.892 111.26C106.324 111.608 106.852 111.782 107.476 111.782C108.1 111.782 108.628 111.608 109.06 111.26C109.492 110.9 109.708 110.402 109.708 109.766C109.708 109.106 109.498 108.608 109.078 108.272C108.658 107.936 108.124 107.768 107.476 107.768ZM107.476 117.632C108.28 117.632 108.922 117.446 109.402 117.074C109.894 116.69 110.14 116.144 110.14 115.436C110.14 114.74 109.894 114.206 109.402 113.834C108.922 113.45 108.28 113.258 107.476 113.258C106.684 113.258 106.042 113.45 105.55 113.834C105.07 114.206 104.83 114.74 104.83 115.436C104.83 116.144 105.07 116.69 105.55 117.074C106.042 117.446 106.684 117.632 107.476 117.632Z" fill="white"/>
<path d="M143.18 110.396C143.18 111.368 142.922 112.214 142.406 112.934H142.424L138.356 119H136.466L139.454 114.59C139.19 114.614 138.986 114.626 138.842 114.626C137.57 114.626 136.526 114.236 135.71 113.456C134.906 112.664 134.504 111.644 134.504 110.396C134.504 109.148 134.906 108.134 135.71 107.354C136.526 106.562 137.57 106.166 138.842 106.166C140.114 106.166 141.152 106.562 141.956 107.354C142.772 108.134 143.18 109.148 143.18 110.396ZM136.898 108.488C136.406 108.968 136.16 109.604 136.16 110.396C136.16 111.188 136.406 111.83 136.898 112.322C137.402 112.802 138.05 113.042 138.842 113.042C139.634 113.042 140.276 112.802 140.768 112.322C141.272 111.83 141.524 111.188 141.524 110.396C141.524 109.604 141.278 108.968 140.786 108.488C140.294 108.008 139.646 107.768 138.842 107.768C138.05 107.768 137.402 108.008 136.898 108.488ZM147.25 106.4H148.69V119H147.034V108.2L144.352 108.992L143.938 107.552L147.25 106.4ZM159.354 117.452C158.502 118.64 157.308 119.234 155.772 119.234C154.236 119.234 153.042 118.64 152.19 117.452C151.338 116.264 150.912 114.68 150.912 112.7C150.912 110.72 151.338 109.136 152.19 107.948C153.042 106.76 154.236 106.166 155.772 106.166C157.308 106.166 158.502 106.76 159.354 107.948C160.206 109.136 160.632 110.72 160.632 112.7C160.632 114.68 160.206 116.264 159.354 117.452ZM153.414 116.318C153.966 117.17 154.752 117.596 155.772 117.596C156.792 117.596 157.578 117.17 158.13 116.318C158.694 115.466 158.976 114.26 158.976 112.7C158.976 111.14 158.694 109.934 158.13 109.082C157.578 108.218 156.792 107.786 155.772 107.786C154.752 107.786 153.966 108.212 153.414 109.064C152.862 109.916 152.586 111.128 152.586 112.7C152.586 114.26 152.862 115.466 153.414 116.318ZM164.652 106.4H166.092V119H164.436V108.2L161.754 108.992L161.34 107.552L164.652 106.4Z" fill="white"/>
<path d="M192.564 106.4H194.004V119H192.348V108.2L189.666 108.992L189.252 107.552L192.564 106.4ZM198.98 106.4H200.42V119H198.764V108.2L196.082 108.992L195.668 107.552L198.98 106.4ZM202.48 119V117.632L206.926 113.096C208.114 111.908 208.708 110.888 208.708 110.036C208.708 109.328 208.492 108.776 208.06 108.38C207.628 107.984 207.1 107.786 206.476 107.786C205.288 107.786 204.424 108.35 203.884 109.478L202.48 108.65C202.876 107.834 203.422 107.216 204.118 106.796C204.826 106.376 205.606 106.166 206.458 106.166C207.514 106.166 208.432 106.514 209.212 107.21C209.992 107.906 210.382 108.842 210.382 110.018C210.382 111.29 209.632 112.676 208.132 114.176L204.91 117.38H210.616V119H202.48ZM214.8 106.4H216.24V119H214.584V108.2L211.902 108.992L211.488 107.552L214.8 106.4Z" fill="white"/>
<path d="M305.18 189.968C304.612 190.76 303.816 191.156 302.792 191.156C301.768 191.156 300.972 190.76 300.404 189.968C299.836 189.176 299.552 188.12 299.552 186.8C299.552 185.48 299.836 184.424 300.404 183.632C300.972 182.84 301.768 182.444 302.792 182.444C303.816 182.444 304.612 182.84 305.18 183.632C305.748 184.424 306.032 185.48 306.032 186.8C306.032 188.12 305.748 189.176 305.18 189.968ZM301.22 189.212C301.588 189.78 302.112 190.064 302.792 190.064C303.472 190.064 303.996 189.78 304.364 189.212C304.74 188.644 304.928 187.84 304.928 186.8C304.928 185.76 304.74 184.956 304.364 184.388C303.996 183.812 303.472 183.524 302.792 183.524C302.112 183.524 301.588 183.808 301.22 184.376C300.852 184.944 300.668 185.752 300.668 186.8C300.668 187.84 300.852 188.644 301.22 189.212ZM309.798 185.504C310.638 185.504 311.33 185.768 311.874 186.296C312.418 186.816 312.69 187.492 312.69 188.324C312.69 189.156 312.418 189.836 311.874 190.364C311.33 190.892 310.638 191.156 309.798 191.156C308.95 191.156 308.254 190.892 307.71 190.364C307.174 189.836 306.906 189.156 306.906 188.324C306.906 187.676 307.074 187.116 307.41 186.644L310.11 182.6H311.382L309.402 185.528C309.578 185.512 309.71 185.504 309.798 185.504ZM308.502 189.608C308.838 189.928 309.27 190.088 309.798 190.088C310.326 190.088 310.754 189.928 311.082 189.608C311.418 189.28 311.586 188.852 311.586 188.324C311.586 187.796 311.418 187.372 311.082 187.052C310.754 186.732 310.326 186.572 309.798 186.572C309.262 186.572 308.83 186.732 308.502 187.052C308.174 187.372 308.01 187.796 308.01 188.324C308.01 188.852 308.174 189.28 308.502 189.608ZM314.107 192.2H313.483L318.283 181.4H318.907L314.107 192.2ZM319.799 191V190.088L322.763 187.064C323.555 186.272 323.951 185.592 323.951 185.024C323.951 184.552 323.807 184.184 323.519 183.92C323.231 183.656 322.879 183.524 322.463 183.524C321.671 183.524 321.095 183.9 320.735 184.652L319.799 184.1C320.063 183.556 320.427 183.144 320.891 182.864C321.363 182.584 321.883 182.444 322.451 182.444C323.155 182.444 323.767 182.676 324.287 183.14C324.807 183.604 325.067 184.228 325.067 185.012C325.067 185.86 324.567 186.784 323.567 187.784L321.419 189.92H325.223V191H319.799ZM329.37 186.044C330.01 186.164 330.534 186.44 330.942 186.872C331.35 187.304 331.554 187.852 331.554 188.516C331.554 189.332 331.274 189.976 330.714 190.448C330.154 190.92 329.474 191.156 328.674 191.156C328.034 191.156 327.466 191.012 326.97 190.724C326.474 190.428 326.122 190.004 325.914 189.452L326.85 188.9C327.098 189.676 327.706 190.064 328.674 190.064C329.194 190.064 329.618 189.928 329.946 189.656C330.274 189.384 330.438 189.004 330.438 188.516C330.438 188.028 330.274 187.648 329.946 187.376C329.618 187.096 329.194 186.956 328.674 186.956H328.386L327.942 186.272L329.886 183.644H326.154V182.6H331.194V183.584L329.37 186.044Z" fill="white"/>
<path d="M19.3835 37.4266L19.3796 37.4318L19.3758 37.4372C19.1646 37.7362 18.6916 37.8241 18.3218 37.5628C18.0257 37.3537 17.9367 36.8876 18.1888 36.5192C18.565 36.0396 18.8383 35.4788 19.0177 34.9307C19.2045 34.36 19.2914 33.7115 19.2881 33.0755C19.2847 32.4395 19.1909 31.792 18.9981 31.2234C18.8128 30.6771 18.5337 30.1193 18.1524 29.6438C17.8964 29.2781 17.9804 28.8111 18.2743 28.5988C18.6414 28.3336 19.1152 28.4164 19.3295 28.7132L19.3334 28.7185L19.3374 28.7237C19.8119 29.3496 20.2011 30.045 20.4337 30.7273C20.6785 31.5299 20.8345 32.3062 20.8385 33.0672C20.8427 33.868 20.7662 34.626 20.4724 35.3722C20.1524 36.1848 19.8425 36.8075 19.3835 37.4266Z" fill="white"/>
<path d="M22.8146 38.9128L22.8239 38.8997L22.8324 38.886C23.8843 37.2005 24.491 35.1666 24.4798 33.0477C24.4685 30.9294 23.8406 28.9026 22.7714 27.2286C22.5397 26.8611 22.6438 26.4266 23.0344 26.1444C23.2967 25.9549 23.7891 26.022 24.0813 26.4136C25.2884 28.3292 26.0175 30.645 26.0302 33.0394C26.0433 35.5156 25.3393 37.7562 24.1515 39.6859C23.8767 40.0642 23.456 40.1702 23.0933 39.9558C22.7001 39.6676 22.6282 39.1768 22.8146 38.9128Z" fill="white"/>
<path d="M28.9722 23.8955L28.9826 23.916L28.9946 23.9355C30.6302 26.6029 31.5392 29.6796 31.5568 33.0099C31.5744 36.3386 30.699 39.4236 29.0931 42.1074C28.8469 42.5034 28.4312 42.615 28.0099 42.4188C27.6264 42.1689 27.5233 41.7546 27.7237 41.3362C29.0894 38.9102 29.9387 36.0516 29.9226 33.0186C29.9066 29.9992 29.1173 27.1451 27.6327 24.7191C27.4319 24.3048 27.5314 23.8923 27.9103 23.6394C28.3675 23.4209 28.8129 23.581 28.9722 23.8955Z" fill="white"/>
<path d="M33.8156 21.3569L33.8227 21.3708L33.8305 21.3844C35.8126 24.8115 36.9771 28.7296 36.9997 32.9807C37.0222 37.2275 35.9016 41.1542 33.9596 44.5997C33.713 44.9911 33.2993 45.1007 32.8799 44.9055C32.4976 44.6563 32.394 44.2438 32.5918 43.8268C34.4627 40.6332 35.4701 36.9333 35.4492 32.989C35.4283 29.0346 34.293 25.3491 32.4794 22.1871C32.2522 21.7255 32.4123 21.2734 32.7295 21.1127C33.1951 20.8767 33.6535 21.0369 33.8156 21.3569Z" fill="white"/>
<path d="M49.764 37.168C48.5 37.168 47.456 36.748 46.632 35.908C45.808 35.068 45.396 34.032 45.396 32.8C45.396 31.56 45.808 30.524 46.632 29.692C47.456 28.852 48.5 28.432 49.764 28.432C50.524 28.432 51.224 28.612 51.864 28.972C52.512 29.324 53.016 29.804 53.376 30.412L51.948 31.24C51.74 30.864 51.444 30.572 51.06 30.364C50.676 30.148 50.244 30.04 49.764 30.04C48.948 30.04 48.288 30.296 47.784 30.808C47.288 31.32 47.04 31.984 47.04 32.8C47.04 33.608 47.288 34.268 47.784 34.78C48.288 35.292 48.948 35.548 49.764 35.548C50.244 35.548 50.676 35.444 51.06 35.236C51.452 35.02 51.748 34.728 51.948 34.36L53.376 35.188C53.016 35.796 52.516 36.28 51.876 36.64C51.236 36.992 50.532 37.168 49.764 37.168ZM55.963 32.032C56.107 31.648 56.343 31.36 56.671 31.168C57.007 30.976 57.379 30.88 57.787 30.88V32.608C57.315 32.552 56.891 32.648 56.515 32.896C56.147 33.144 55.963 33.556 55.963 34.132V37H54.415V31H55.963V32.032ZM59.7777 34.636C59.9857 35.388 60.5497 35.764 61.4697 35.764C62.0617 35.764 62.5097 35.564 62.8137 35.164L64.0617 35.884C63.4697 36.74 62.5977 37.168 61.4457 37.168C60.4537 37.168 59.6577 36.868 59.0577 36.268C58.4577 35.668 58.1577 34.912 58.1577 34C58.1577 33.096 58.4537 32.344 59.0457 31.744C59.6377 31.136 60.3977 30.832 61.3257 30.832C62.2057 30.832 62.9297 31.136 63.4977 31.744C64.0737 32.352 64.3617 33.104 64.3617 34C64.3617 34.2 64.3417 34.412 64.3017 34.636H59.7777ZM59.7537 33.436H62.8137C62.7257 33.028 62.5417 32.724 62.2617 32.524C61.9897 32.324 61.6777 32.224 61.3257 32.224C60.9097 32.224 60.5657 32.332 60.2937 32.548C60.0217 32.756 59.8417 33.052 59.7537 33.436ZM69.9435 28.6H71.4915V37H69.9435V36.292C69.4875 36.876 68.8395 37.168 67.9995 37.168C67.1915 37.168 66.4995 36.864 65.9235 36.256C65.3555 35.64 65.0715 34.888 65.0715 34C65.0715 33.112 65.3555 32.364 65.9235 31.756C66.4995 31.14 67.1915 30.832 67.9995 30.832C68.8395 30.832 69.4875 31.124 69.9435 31.708V28.6ZM67.0875 35.224C67.4075 35.536 67.8075 35.692 68.2875 35.692C68.7675 35.692 69.1635 35.536 69.4755 35.224C69.7875 34.904 69.9435 34.496 69.9435 34C69.9435 33.504 69.7875 33.1 69.4755 32.788C69.1635 32.468 68.7675 32.308 68.2875 32.308C67.8075 32.308 67.4075 32.468 67.0875 32.788C66.7755 33.1 66.6195 33.504 66.6195 34C66.6195 34.496 66.7755 34.904 67.0875 35.224ZM73.6752 30.28C73.4192 30.28 73.1952 30.188 73.0032 30.004C72.8192 29.812 72.7272 29.588 72.7272 29.332C72.7272 29.076 72.8192 28.852 73.0032 28.66C73.1952 28.468 73.4192 28.372 73.6752 28.372C73.9392 28.372 74.1632 28.468 74.3472 28.66C74.5392 28.852 74.6352 29.076 74.6352 29.332C74.6352 29.588 74.5392 29.812 74.3472 30.004C74.1632 30.188 73.9392 30.28 73.6752 30.28ZM72.9072 37V31H74.4552V37H72.9072ZM79.3041 32.488H77.9481V34.984C77.9481 35.192 78.0001 35.344 78.1041 35.44C78.2081 35.536 78.3601 35.592 78.5601 35.608C78.7601 35.616 79.0081 35.612 79.3041 35.596V37C78.2401 37.12 77.4881 37.02 77.0481 36.7C76.6161 36.38 76.4001 35.808 76.4001 34.984V32.488H75.3561V31H76.4001V29.788L77.9481 29.32V31H79.3041V32.488ZM87.5453 37.168C86.2813 37.168 85.2373 36.748 84.4133 35.908C83.5893 35.068 83.1772 34.032 83.1772 32.8C83.1772 31.56 83.5893 30.524 84.4133 29.692C85.2373 28.852 86.2813 28.432 87.5453 28.432C88.3053 28.432 89.0053 28.612 89.6453 28.972C90.2933 29.324 90.7973 29.804 91.1573 30.412L89.7293 31.24C89.5213 30.864 89.2253 30.572 88.8412 30.364C88.4573 30.148 88.0253 30.04 87.5453 30.04C86.7293 30.04 86.0693 30.296 85.5653 30.808C85.0693 31.32 84.8213 31.984 84.8213 32.8C84.8213 33.608 85.0693 34.268 85.5653 34.78C86.0693 35.292 86.7293 35.548 87.5453 35.548C88.0253 35.548 88.4573 35.444 88.8412 35.236C89.2333 35.02 89.5293 34.728 89.7293 34.36L91.1573 35.188C90.7973 35.796 90.2973 36.28 89.6573 36.64C89.0173 36.992 88.3133 37.168 87.5453 37.168ZM96.6977 31H98.2457V37H96.6977V36.292C96.2337 36.876 95.5817 37.168 94.7417 37.168C93.9417 37.168 93.2537 36.864 92.6777 36.256C92.1097 35.64 91.8257 34.888 91.8257 34C91.8257 33.112 92.1097 32.364 92.6777 31.756C93.2537 31.14 93.9417 30.832 94.7417 30.832C95.5817 30.832 96.2337 31.124 96.6977 31.708V31ZM93.8417 35.224C94.1537 35.536 94.5497 35.692 95.0297 35.692C95.5097 35.692 95.9057 35.536 96.2177 35.224C96.5377 34.904 96.6977 34.496 96.6977 34C96.6977 33.504 96.5377 33.1 96.2177 32.788C95.9057 32.468 95.5097 32.308 95.0297 32.308C94.5497 32.308 94.1537 32.468 93.8417 32.788C93.5297 33.1 93.3737 33.504 93.3737 34C93.3737 34.496 93.5297 34.904 93.8417 35.224ZM101.197 32.032C101.341 31.648 101.577 31.36 101.905 31.168C102.241 30.976 102.613 30.88 103.021 30.88V32.608C102.549 32.552 102.125 32.648 101.749 32.896C101.381 33.144 101.197 33.556 101.197 34.132V37H99.6494V31H101.197V32.032ZM108.252 28.6H109.8V37H108.252V36.292C107.796 36.876 107.148 37.168 106.308 37.168C105.5 37.168 104.808 36.864 104.232 36.256C103.664 35.64 103.38 34.888 103.38 34C103.38 33.112 103.664 32.364 104.232 31.756C104.808 31.14 105.5 30.832 106.308 30.832C107.148 30.832 107.796 31.124 108.252 31.708V28.6ZM105.396 35.224C105.716 35.536 106.116 35.692 106.596 35.692C107.076 35.692 107.472 35.536 107.784 35.224C108.096 34.904 108.252 34.496 108.252 34C108.252 33.504 108.096 33.1 107.784 32.788C107.472 32.468 107.076 32.308 106.596 32.308C106.116 32.308 105.716 32.468 105.396 32.788C105.084 33.1 104.928 33.504 104.928 34C104.928 34.496 105.084 34.904 105.396 35.224Z" fill="white"/>
<path fill-rule="evenodd" clip-rule="evenodd" d="M297 104.473C297 102.003 298.97 100 301.4 100H327.798C330.228 100 332.198 102.003 332.198 104.473V122.921C332.198 125.392 330.228 127.394 327.798 127.394H301.4C298.97 127.394 297 125.392 297 122.921V104.473ZM321.073 100.864H327.798C329.759 100.864 331.348 102.48 331.348 104.473V107.995H321.073V100.864ZM320.224 100.864H301.4C299.439 100.864 297.85 102.48 297.85 104.473V107.995H306.899C308.349 107.995 309.524 109.19 309.524 110.663V126.531H320.224V100.864ZM321.073 126.531H327.798C329.759 126.531 331.348 124.915 331.348 122.921V122.061H321.073V126.531ZM331.348 121.197V115.46H321.073V121.197H331.348ZM331.348 114.596V108.859H321.073V114.596H331.348ZM308.674 126.531V122.061H297.85V122.921C297.85 124.915 299.439 126.531 301.4 126.531H308.674ZM297.85 121.197H308.674V115.46H297.85V121.197ZM297.85 114.596H308.674V110.663C308.674 109.667 307.88 108.859 306.899 108.859H297.85V114.596Z" fill="white"/>
<path d="M320.224 100.864H301.4C299.439 100.864 297.85 102.48 297.85 104.473V107.995H306.899C308.349 107.995 309.524 109.19 309.524 110.663V126.531H320.224V100.864Z" fill="white" fill-opacity="0.26"/>
<path d="M308.674 114.596H297.85V108.859H306.899C307.88 108.859 308.674 109.667 308.674 110.663V114.596Z" fill="white" fill-opacity="0.26"/>
<path d="M308.674 121.197H297.85V115.46H308.674V121.197Z" fill="white" fill-opacity="0.26"/>
<path d="M308.674 122.061V126.531H301.4C299.439 126.531 297.85 124.915 297.85 122.921V122.061H308.674Z" fill="white" fill-opacity="0.26"/>
<path d="M327.798 100.864H321.073V107.995H331.348V104.473C331.348 102.48 329.759 100.864 327.798 100.864Z" fill="white" fill-opacity="0.26"/>
<path d="M331.348 114.596V108.859H321.073V114.596H331.348Z" fill="white" fill-opacity="0.26"/>
<path d="M331.348 121.197V115.46H321.073V121.197H331.348Z" fill="white" fill-opacity="0.26"/>
<path d="M321.073 126.531H327.798C329.759 126.531 331.348 124.915 331.348 122.921V122.061H321.073V126.531Z" fill="white" fill-opacity="0.26"/>
<path d="M319.413 26.577C318.723 26.3028 317.628 26 316.274 26C312.817 26 310.383 27.8453 310.368 30.4836C310.339 32.4301 312.111 33.5113 313.436 34.1603C314.79 34.8235 315.25 35.2564 315.25 35.8475C315.236 36.7554 314.156 37.1739 313.148 37.1739C311.751 37.1739 311.002 36.9582 309.864 36.4531L309.403 36.2365L308.913 39.2787C309.734 39.6532 311.247 39.9854 312.817 40C316.49 40 318.881 38.1832 318.909 35.3717C318.923 33.829 317.988 32.6468 315.971 31.6809C314.747 31.0608 313.997 30.6427 313.997 30.0082C314.011 29.4314 314.631 28.8406 316.013 28.8406C317.151 28.8117 317.987 29.0855 318.621 29.3595L318.937 29.5035L319.413 26.577Z" fill="white"/>
<path d="M306.724 39.798H303.224L305.413 26.2457H308.913L306.724 39.798Z" fill="white"/>
<path fill-rule="evenodd" clip-rule="evenodd" d="M325.678 26.2457H328.386L331.21 39.7978H327.969C327.969 39.7978 327.652 38.2407 327.551 37.7649H323.057C322.927 38.1252 322.323 39.7978 322.323 39.7978H318.65L323.849 27.3701C324.209 26.4906 324.844 26.2457 325.678 26.2457ZM325.463 31.2051C325.463 31.2051 324.354 34.2183 324.065 34.9969H326.975C326.831 34.3193 326.168 31.0753 326.168 31.0753L325.923 29.9076C325.82 30.2082 325.671 30.6215 325.571 30.9004C325.503 31.0894 325.457 31.2168 325.463 31.2051Z" fill="white"/>
<path d="M300.3 26.2457L296.872 35.4871L296.498 33.6128L296.497 33.6117L295.274 27.3849C295.072 26.5193 294.453 26.2742 293.689 26.2457H288.058L288 26.5195C289.374 26.8711 290.602 27.3778 291.678 28.0078L294.798 39.7837H298.5L304.002 26.2457H300.3Z" fill="white"/>
</g>
<defs>
<linearGradient id="paint0_linear_206_129" x1="5.21541e-06" y1="220" x2="350" y2="-3.82689e-06" gradientUnits="userSpaceOnUse">
<stop stop-color="#280537"/>
<stop offset="0.185417" stop-color="#56034C"/>
<stop offset="0.419792" stop-color="#890058"/>
<stop offset="0.669792" stop-color="#BC005B"/>
<stop offset="1" stop-color="#EB1254"/>
</linearGradient>
<clipPath id="clip0_206_129">
<rect width="350" height="220" rx="12" fill="white"/>
</clipPath>
</defs>
</svg>
