<svg width="79" height="116" viewBox="0 0 79 116" fill="none" xmlns="http://www.w3.org/2000/svg">
<path d="M19.9766 60.1694C9.82236 60.1694 5.1377 57.8997 5.1377 57.8997V5.60288C5.1377 5.60288 10.6204 8.50234 19.9766 8.6797C29.3328 8.85705 36.8248 5.60288 36.8248 5.60288C36.8248 5.60288 47.2825 0.805346 59.8559 1.37282C72.4293 1.94029 79 5.04394 79 5.04394V57.8997C79 57.8997 67.5978 52.8641 59.8559 52.8641C52.1139 52.8641 36.8248 57.8997 36.8248 57.8997C36.8248 57.8997 30.1308 60.1694 19.9766 60.1694Z" fill="#F2F2F2"/>
<ellipse cx="30.9286" cy="19.0649" rx="2.43932" ry="2.50633" fill="#E31D1C"/>
<ellipse cx="30.9286" cy="26.6465" rx="2.43932" ry="2.50633" fill="#E31D1C"/>
<ellipse cx="30.9286" cy="34.228" rx="2.43932" ry="2.50633" fill="#E31D1C"/>
<ellipse cx="30.9286" cy="41.8096" rx="2.43932" ry="2.50633" fill="#E31D1C"/>
<ellipse cx="38.2469" cy="22.8247" rx="2.43932" ry="2.50633" fill="#E31D1C"/>
<ellipse cx="38.2469" cy="30.4067" rx="2.43932" ry="2.50633" fill="#E31D1C"/>
<ellipse cx="38.2469" cy="37.9878" rx="2.43932" ry="2.50633" fill="#E31D1C"/>
<ellipse cx="45.5643" cy="26.584" rx="2.43932" ry="2.50633" fill="#E31D1C"/>
<ellipse cx="52.8827" cy="30.4687" rx="2.43932" ry="2.50633" fill="#E31D1C"/>
<ellipse cx="45.5643" cy="34.166" rx="2.43932" ry="2.50633" fill="#E31D1C"/>
<ellipse cx="30.9286" cy="19.0649" rx="2.43932" ry="2.50633" fill="#E31D1C"/>
<ellipse cx="30.9286" cy="26.647" rx="2.43932" ry="2.50633" fill="#E31D1C"/>
<path d="M28.7944 20.2554L29.953 20.318L30.014 25.832H28.623C29.2939 24.2028 30.075 23.1376 28.7944 20.2554Z" fill="#E31D1C"/>
<path d="M33.0022 20.3809H31.8435L31.7825 25.8948H33.2461C32.5753 24.2657 31.7215 23.2631 33.0022 20.3809Z" fill="#E31D1C"/>
<rect x="29.709" y="21.0698" width="2.31735" height="3.75949" fill="#E31D1C"/>
<ellipse cx="2.49274" cy="2.62386" rx="2.49274" ry="2.62386" transform="matrix(0.443056 -0.896494 0.886586 0.462564 42.3594 27.6904)" fill="#E31D1C"/>
<ellipse cx="2.49274" cy="2.62386" rx="2.49274" ry="2.62386" transform="matrix(0.443056 -0.896494 0.886586 0.462564 49.3965 31.3618)" fill="#E31D1C"/>
<path d="M45.9291 29.2009L46.5119 28.1699L51.6573 30.7841L51.0275 32.0584C49.8192 30.6549 49.1842 29.4235 45.9291 29.2009Z" fill="#E31D1C"/>
<path d="M47.9501 25.4066L47.4255 26.4681L52.5157 29.1941L53.1783 27.8532C51.3626 27.6789 50.0455 27.9756 47.9501 25.4066Z" fill="#E31D1C"/>
<rect width="2.3681" height="3.93578" transform="matrix(0.443056 -0.896494 0.886586 0.462564 47.0986 28.7573)" fill="#E31D1C"/>
<ellipse cx="2.49327" cy="2.56025" rx="2.49327" ry="2.56025" transform="matrix(0.434263 0.900786 -0.891216 0.453579 39.3457 34.6094)" fill="#E31D1C"/>
<ellipse cx="2.49327" cy="2.56025" rx="2.49327" ry="2.56025" transform="matrix(0.434263 0.900786 -0.891216 0.453579 32.4434 38.1226)" fill="#E31D1C"/>
<path d="M36.1161 36.6031L36.5733 37.6988L31.5806 40.3098L30.9632 39.0292C32.7441 38.8919 34.0605 39.1176 36.1161 36.6031Z" fill="#E31D1C"/>
<path d="M37.8693 40.5352L37.355 39.4684L32.3081 41.967L32.9577 43.3146C34.1431 41.9421 34.6768 40.6915 37.8693 40.5352Z" fill="#E31D1C"/>
<rect width="2.36861" height="3.84038" transform="matrix(0.434263 0.900786 -0.891216 0.453579 35.7803 37.8228)" fill="#E31D1C"/>
<path d="M5.41699 2.82617C5.41699 1.44546 4.29771 0.326173 2.91699 0.326172C1.53628 0.326171 0.416993 1.44546 0.416992 2.82617L5.41699 2.82617ZM0.416992 2.82617L0.416884 115.777L5.41688 115.777L5.41699 2.82617L0.416992 2.82617Z" fill="#F2F2F2"/>
</svg>
