<svg width="523" height="336" viewBox="0 0 523 336" fill="none" xmlns="http://www.w3.org/2000/svg">
<ellipse cx="250.124" cy="127.05" rx="4.89955" ry="5.03415" fill="#E31D1C"/>
<ellipse cx="250.124" cy="142.278" rx="4.89955" ry="5.03415" fill="#E31D1C"/>
<ellipse cx="250.124" cy="157.507" rx="4.89955" ry="5.03415" fill="#E31D1C"/>
<ellipse cx="250.124" cy="172.734" rx="4.89955" ry="5.03415" fill="#E31D1C"/>
<ellipse cx="264.823" cy="134.601" rx="4.89955" ry="5.03415" fill="#E31D1C"/>
<ellipse cx="264.823" cy="149.83" rx="4.89955" ry="5.03415" fill="#E31D1C"/>
<ellipse cx="198.639" cy="149.157" rx="4.89955" ry="5.03415" fill="#E31D1C"/>
<ellipse cx="314.248" cy="217.05" rx="4.89955" ry="5.03415" fill="#E31D1C"/>
<ellipse cx="347.585" cy="149.83" rx="4.89955" ry="5.03415" fill="#E31D1C"/>
<ellipse cx="232.639" cy="217.05" rx="4.89955" ry="5.03415" fill="#E31D1C"/>
<ellipse cx="19.8995" cy="261.05" rx="4.89955" ry="5.03415" fill="#E31D1C"/>
<ellipse cx="232.639" cy="82.3979" rx="4.89955" ry="5.03415" fill="#E31D1C"/>
<ellipse cx="314.248" cy="82.3979" rx="4.89955" ry="5.03415" fill="#E31D1C"/>
<ellipse cx="264.823" cy="165.058" rx="4.89955" ry="5.03415" fill="#E31D1C"/>
<ellipse cx="279.522" cy="142.153" rx="4.89955" ry="5.03415" fill="#E31D1C"/>
<ellipse cx="294.22" cy="149.956" rx="4.89955" ry="5.03415" fill="#E31D1C"/>
<ellipse cx="279.522" cy="157.382" rx="4.89955" ry="5.03415" fill="#E31D1C"/>
<ellipse cx="250.125" cy="127.05" rx="4.89955" ry="5.03415" fill="#E31D1C"/>
<ellipse cx="250.125" cy="142.279" rx="4.89955" ry="5.03415" fill="#E31D1C"/>
<path d="M245.838 129.441L248.165 129.567L248.287 140.642H245.494C246.841 137.37 248.41 135.23 245.838 129.441Z" fill="#E31D1C"/>
<path d="M254.289 129.693H251.962L251.84 140.768H254.779C253.432 137.496 251.717 135.482 254.289 129.693Z" fill="#E31D1C"/>
<rect x="247.675" y="131.077" width="4.65457" height="7.55122" fill="#E31D1C"/>
<ellipse cx="5.00685" cy="5.27021" rx="5.00685" ry="5.27021" transform="matrix(0.443056 -0.896494 0.886586 0.462564 273.083 144.375)" fill="#E31D1C"/>
<ellipse cx="5.00685" cy="5.27021" rx="5.00685" ry="5.27021" transform="matrix(0.443056 -0.896494 0.886586 0.462564 287.218 151.75)" fill="#E31D1C"/>
<path d="M280.252 147.41L281.422 145.339L291.757 150.59L290.492 153.149C288.065 150.33 286.79 147.857 280.252 147.41Z" fill="#E31D1C"/>
<path d="M284.312 139.789L283.259 141.921L293.483 147.396L294.814 144.703C291.167 144.353 288.521 144.949 284.312 139.789Z" fill="#E31D1C"/>
<rect width="4.75651" height="7.90531" transform="matrix(0.443056 -0.896494 0.886586 0.462564 282.603 146.519)" fill="#E31D1C"/>
<ellipse cx="5.00791" cy="5.14245" rx="5.00791" ry="5.14245" transform="matrix(0.434263 0.900786 -0.891216 0.453579 267.03 158.273)" fill="#E31D1C"/>
<ellipse cx="5.00791" cy="5.14245" rx="5.00791" ry="5.14245" transform="matrix(0.434263 0.900786 -0.891216 0.453579 253.166 165.329)" fill="#E31D1C"/>
<path d="M260.542 162.277L261.461 164.478L251.432 169.723L250.192 167.15C253.769 166.875 256.414 167.328 260.542 162.277Z" fill="#E31D1C"/>
<path d="M264.065 170.175L263.032 168.032L252.895 173.051L254.2 175.758C256.58 173.001 257.653 170.489 264.065 170.175Z" fill="#E31D1C"/>
<rect width="4.75752" height="7.71368" transform="matrix(0.434263 0.900786 -0.891216 0.453579 259.868 164.727)" fill="#E31D1C"/>
<path d="M520.121 200.879L517.733 198.857L512.84 198.329L510.759 195.911L509.807 192.717L510.334 191.134L511.565 189.947L512.678 187.983L512.927 185.594L512.84 183.689L513.294 182.165L515.257 180.905L516.619 178.795L516.341 176.479L515.521 174.061L515.316 171.555L517.835 168.536L518.495 167.481L518.905 165.957L519.506 160.579L519.257 156.989L520.663 151.288L520.062 148.445L519.051 147.229L515.11 144.107L512.737 140.238L511.521 138.978V138.934L510.906 138.553L510.276 138.421L509.646 138.553L506.305 140.473L503.405 143.799L501.412 147.639L501.324 150.79L498.467 150.922L496.255 150.335L494.38 150.687L492.607 153.618L492.08 155.758L492.006 157.164L491.669 158.454L490.483 160.169L485.487 162.719L482.498 163.554L480.125 163.466L475.173 161.883L472.565 160.374L468.14 156.153L455.805 152.182L452.962 149.998L451.497 147.917L451.307 146.335L451.673 144.532L451.951 140.59L452.435 138.978V137.996L452.01 137.454L451.307 137.527L450.794 137.102L450.999 135.197L429.258 128.339L427.338 128.046L421.317 128.793L419.149 128.222L416.79 128.984L409.757 127.797L407.164 127.049L407.032 125.481L408.366 123.664L410.138 121.847L411.237 119.605L411.179 116L410.226 113.318L408.981 110.871L408.073 108.086L408.366 102.4L410.343 96.7142L412.248 93.4902L415.955 87.2327L419.852 82.4846L420.306 81.3269L420.907 78.3373L421.449 76.8426L425.888 71.2005L427.031 68.6213L427.104 61.4406L423.822 58.5389L419.544 56.5752L416.131 51.4608L415.281 47.4454V47.4307L383.723 27.7936L379.255 26.7531H374.947L373.38 24.3204H367.007L354.217 22.8843L352.019 23.7342L350.202 25.7273L345.998 27.0755L341.5 27.5005L338.702 26.7531L335.361 24.2618L333.647 22.5619V21.3602L335.742 20.8766L332.783 18.0483L329.018 15.8647L325.912 15.7328L324.901 19.0741L325.824 20.1146L319.744 20.2025L319.539 19.1034L319.231 17.7991L318.323 16.6707L317.839 15.2639L318.22 14.1648L319.744 11.8494L320.066 11.2192L319.29 9.47531L318.176 9.27015L316.902 9.53393L315.7 9.27015L314.865 7.90727L313.942 5.94355L312.858 4.25827L311.349 3.74536L310.309 4.85911L309.723 8.56672L308.316 9.50462L307.144 8.65465L306.749 6.60301L306.646 4.39016L306.485 3.14452L304.346 2.17731L301.489 2.01611L299.672 3.07125L300.727 5.76769L298.984 6.64697L292.787 7.87796L291.527 7.83399L290.618 8.37621L289.051 10.677L288.494 11.9226L287.629 15.3225L286.413 16.4656L283.513 18.0776L282.37 19.3672L282.253 20.6275L282.721 21.8731L283.029 23.3093L282.267 25.1704L284.099 25.8299L284.655 25.9178L287.615 28.1746L289.988 29.5228L292.025 29.4349L293.753 28.5556L295.321 27.4126L297.035 26.5479L302.646 25.5954L304.243 25.8738L306.089 26.6212L307.13 26.7238L306.485 30.7538L305.738 30.3874L305.664 29.3323L305.533 29.0685L305.049 29.0832L304.448 29.3177L304.009 29.6694L303.76 30.6073L303.965 31.384L304.214 32.0434L304.258 32.6442L304.141 33.802L304.185 35.0036L304.068 36.2786L303.306 37.5829L301.767 38.1251L300.493 36.557L299.116 34.2563L297.343 32.5856L293.9 32.9373L290.384 35.2674L289.051 38.169L288.889 38.9897L285.359 39.5905L278.004 39.5319L273.623 38.3742L272.51 37.6415L271.704 36.0002L271.104 34.3588L270.459 33.6261L269.126 33.4796L266.137 32.571H264.071L257.845 33.6261L257.273 34.0071L256.687 34.8424L255.925 35.6631L253.801 36.2932L251.325 37.6561L250.373 38.3742L249.406 39.5026L248.952 40.3526L248.424 41.1L247.311 41.862L242.124 43.0197H227.166L226.859 42.287L226.624 40.7043L226.243 39.1069L225.569 38.3742L218.156 37.9346L216.544 37.0992L214.42 40.3672L212.603 42.5654L210.42 43.7964L200.868 45.7894L198.334 45.4524L192.371 42.3016L195.374 42.3309L196.62 41.1586L198.143 36.8941L195.506 37.1725L189.792 38.8871L189.616 39.0483L185.544 40.4698L182.789 42.0085L177.764 46.1265L178.042 46.2437L179.962 47.6945H180.343L180.387 49.3945L179.888 50.3763L178.98 50.6694L177.764 50.4203L177.105 50.772L176.958 51.3289L177.207 52.003L178.013 53.1607L178.145 53.571L178.116 54.0253L177.969 54.5089L177.764 54.7874L176.021 56.3701L174.526 56.1649L173.003 55.1977L171.245 54.5822L169.897 54.9779L169.926 56.0184L170.483 57.0588L170.878 57.4838L171.435 58.2752L171.64 59.2277L171.259 60.8104L168.988 63.7853L165.78 65.0749L157.795 64.7378L154.763 65.368L150.411 67.2731L149.649 67.4343L148.741 67.0386L148.287 66.4231L147.95 65.8223L147.481 65.4413L144.112 64.3861L141.606 62.8767L140.947 60.1216L143.027 55.3003L139.921 55.6227L138.368 55.3589L136.874 54.5089L134.178 53.9374L128.435 54.9339L125.476 54.5089L124.421 53.7029L123.351 53.4245L122.341 53.7029L121.315 54.5089L119.161 55.1537L119.469 57.0442L120.626 59.4036L121.212 61.4113L120.319 62.8327L118.634 64.3129L116.759 65.3827L113.755 66.0568L113.55 69.2515L110.62 70.9954L108.891 73.2229L107.485 75.8607L106.899 78.0442L120.568 76.6814L122.707 75.6555L124.421 77.0624L126.135 78.6304L127.351 80.345L126.443 82.2061L125.373 82.8949L124.187 83.2173L123 83.9207L121.315 86.1922L120.7 86.4267L119.66 86.5732L117.491 88.8007L116.729 92.2592L117.213 96.4504L109.404 102.18L106.064 105.624L103.895 109.244L96.3503 116.205L92.8928 117.407L93.0246 120.293L91.3691 121.143L90.9442 121.437L90.5194 122.521L87.6332 123.561L86.549 124.617L85.0107 127.298L86.4025 130.42L83.7654 134.215L76.0884 140.048L63.694 143.946L58.1267 147.17L56.4126 153.061L56.8961 154.6L58.4344 157.516L58.786 159.363L58.6102 161.693L57.9802 163.29L57.1744 164.741L55.3431 170.192L55.1966 171.013L55.5042 171.951L56.1049 172.772L56.9693 173.71L57.0133 176.538L56.5884 177.93L55.2991 179.557L54.0831 180.465L50.2447 182.488L47.2413 185.902L46.0985 186.869L37.8502 191.383L22.3791 205.554L20.8408 207.576L21.1924 209.775L23.976 212.881L19.9031 218.01L15.9181 224.898L14.5996 226.305L14.1454 227.316V228.166L14.3945 228.957L14.6728 229.646L14.7461 230.159V231.419L15.0098 232.562L14.7754 233.647L13.4568 234.907L19.6541 238.732L21.3535 240.549L22.7307 243.07L22.9212 244.902L19.1999 253.225L18.7897 254.515L17.9839 259.219L17.9399 261.007L18.0425 262.546L17.5297 263.645L15.0098 264.436L14.3505 264.524L13.6326 264.436L12.7243 264.143L12.5192 264.114L12.3287 264.143L12.1529 264.202L5.2378 267.587L2.46882 269.346L2 271.353L3.21601 273.625L5.2378 276.16L4.88618 277.596L4.03644 279.267L2.48347 282.857L5.2378 281.216L10.4827 279.955L15.713 279.75L19.6248 281.509L23.346 279.589L29.2356 272.716L36.5902 267.851L39.579 264.7L38.9636 260.86L38.1579 260.523L36.2386 261.417L35.0226 260.773L34.5391 260.084L33.455 257.343L33.3817 256.669L32.3122 253.841L31.8434 252.185L32.4734 249.914L34.8761 246.631L38.1579 242.293L41.8938 239.054L45.4392 237.897L49.2338 237.736L52.9697 236.783L62.7856 230.057L70.1403 228.591L77.8026 228.84L94.9439 233.281L96.6873 234.116L97.7421 235.786L98.0058 238.937L97.1708 241.722L94.1381 245.268L93.5227 247.188L95.7203 250.983L99.7932 255.321L102.43 259.82L98.3282 267.748L96.3503 273.683L95.2955 279.355L96.3064 282.139L105.463 284.161L107.206 285.861L107.075 287.107L106.269 288.382L105.36 289.51L104.833 290.375L105.155 290.199L105.36 291.84L105.375 293.57L105.199 293.731L105.258 295.02L105.024 295.695L105.111 296.222L106.122 296.999L107.206 297.145L108.085 296.471L108.891 295.636L109.858 295.24L112.481 296.383L120.275 305.191L120.832 305.557L121.227 307.316L122.546 310.745L123.351 313.749L123.981 315.405L124.773 316.753L129.93 322.527L132.611 324.124L136.142 324.843L139.921 324.784L143.379 324.139L150.455 321.223L153.693 319.215L155.217 318.702L163.861 319.625L167.553 318.321L174.35 313.353L177.764 311.859L180.181 311.565L181.456 309.909L182.57 308.034L184.489 307.037L196.224 309.983L198.011 311.009L199.755 312.621L201.908 315.757L202.084 316.182L203.491 316.68L204.458 316.445L205.322 316.035L206.435 315.903L211.988 317.926L215.123 317.867L217.204 318.497L217.848 318.526L219.299 317.735L219.577 317.193L219.475 316.328L219.826 314.643L222.507 309.528L225.569 307.389L233.73 305.557L234.814 305.22L235.649 304.531L237.07 302.67L237.173 302.304L238.286 299.842L238.491 299.519L239.092 294.815L239.121 292.954L239.341 291.064L240.176 289.349L241.319 288.47L243.721 288.221L244.952 287.796L249.992 283.429L252.497 278.08L252.19 271.998L248.747 265.433L246.066 263.088L245.67 262.443L246.168 261.051L247.311 259.439L249.552 257.153L252.043 256.01L257.039 254.881L259.412 253.225L265.082 245.766L268.32 244.11L269.653 243.099L270.796 241.736L271.499 240.212L271.455 238.542L270.693 237.955L270.239 237.252L271.206 235.142L273.653 232.533L276.759 230.833L283.19 229.456L286.487 230.042L288.084 232.328L288.538 236.08L288.596 241.106L288.215 245.898L286.34 254.5L285.959 258.765L286.413 262.81L287.688 265.477L289.783 267.235L292.787 268.437L295.98 270.034L299.233 273.376L306.485 284.117L307.598 284.689L309.825 285.466L315.187 288.587L317.209 288.69L318.044 288.221L319.832 286.653L320.55 286.316L321.487 286.653L322.337 288.221L323.231 288.807L325.047 289.071L328.593 288.983L330.307 289.598L333.237 293.452L331.552 297.336L328.256 301.337L326.234 305.967L325.809 306.759L325.604 307.213L327.582 307.33L329.34 307.96L335.918 311.492L336.724 312.108L337.456 313.163L338.599 315.771L340.577 319.347L341.529 321.487L342.189 323.656L342.394 326.498L341.91 328.55L341.222 330.499L340.797 333.034L345.353 331.642L349.118 333.328L352.576 333.972L356.239 329.459L359.125 323.89L359.55 321.076L358.26 318.336L357.147 317.662L354.671 317.149L353.543 316.504L352.503 314.965L351.536 311.976L350.305 310.715L350.056 310.29L349.968 309.88L350.056 309.441L350.305 309.045L354.1 305.557L352.048 299.812L352.547 297.922L355.491 295.651L358.011 294.859L359.095 294.214L360.004 292.661L360.385 290.624L360.136 286.916L360.59 284.777L362.714 281.582L371.065 275.925L371.973 274.225L372.53 272.306L373.16 270.664L374.391 269.741L375.783 269.082L377.13 267.851L378.156 266.165L379.885 260.23L383.24 253.211L383.958 249.532L383.796 247.408L382.258 241.502L382.229 239.128L382.536 237.032L382.302 235.376L380.764 234.306L379.65 232.064L380.559 227.976L382.58 223.975L384.763 221.938L390.375 221.234L392.645 221.85L392.748 223.916L395.678 226.715L396.543 227.082L397.803 226.583L398.359 225.587L398.769 224.4L399.531 223.345L401.392 221.967L402.3 221.777L402.667 222.802L403.37 238.776L403.194 241.326L403.414 242.234L404.249 243.07L406.783 244.477L407.809 245.312L410.094 251.306L411.56 253.328L414.006 254.984L416.673 255.966L429.858 256.112L432.041 255.248L433.785 252.8L433.829 251.496L433.653 249.62L433.872 247.715L435.118 246.294L436.392 246.338L439.161 248.023L440.626 248.345L443.029 247.569L450.691 243.627L455.702 242.762L457.943 242.938L460.302 243.553L463.188 245.444L463.936 248.14L463.994 251.438L464.756 255.057L466.412 257.343L470.968 261.373L472.125 264.202L472.228 267.953L476.022 268.027L480.872 266.18L484.11 264.158L485.604 260.992L484.139 258.032L479.392 253.211L478.352 251.35L477.898 249.943L477.942 248.433L478.557 246.177L479.407 244.565L481.809 242.396L482.645 241.282L483.509 237.648L482.674 235.801L480.681 235.01L475.524 234.013L472.155 232.694L470.367 230.438L472.389 226.994L471.378 226.305L470.821 225.367L470.558 224.165L470.411 222.627L470.924 220.853V217.19L471.1 215.988L472.081 214.508L474.557 212.031L475.524 210.756L476.931 205.32L477.444 204.089L478.557 203.473L489.428 200.337L492.387 200.322L494.233 201.802L494.424 203.693L493.823 207.122L494.321 208.939L499.083 210.566L499.962 211.372L500.577 212.207L501.309 212.969L502.599 213.57L504.093 213.819L508.078 213.438L516.326 215.607L518.392 215.211L520.018 212.544L520.927 208.412L521 204.089L520.121 200.879Z" stroke="white" stroke-width="3" stroke-linecap="round" stroke-linejoin="round"/>
</svg>
