<svg width="502" height="502" viewBox="0 0 502 502" fill="none" xmlns="http://www.w3.org/2000/svg">
<path d="M204.32 199.795C204.32 199.795 205.012 219.809 198.788 229.307C192.564 238.805 170.434 242.536 170.434 242.536" stroke="white" stroke-width="5"/>
<path d="M227.832 299.524C227.832 299.524 228.523 279.51 222.299 270.012C216.075 260.514 193.945 256.783 193.945 256.783" stroke="white" stroke-width="5"/>
<path d="M274.19 299.524C274.19 299.524 273.498 279.51 279.722 270.012C285.946 260.514 308.076 256.783 308.076 256.783" stroke="white" stroke-width="5"/>
<path d="M294.247 199.795C294.247 199.795 293.555 219.809 299.779 229.307C306.003 238.805 328.133 242.536 328.133 242.536" stroke="white" stroke-width="5"/>
<path d="M249.619 204.879C249.619 204.879 255.842 143.486 203.975 143.82C152.109 144.154 157.641 204.879 157.641 204.879" stroke="#E31D1C" stroke-width="5" stroke-linecap="round"/>
<path d="M342.112 204.547C342.112 204.547 348.336 143.154 296.469 143.488C244.602 143.822 250.134 204.547 250.134 204.547" stroke="#E31D1C" stroke-width="5" stroke-linecap="round"/>
<path d="M190.144 307.326C190.144 307.326 121.771 316.291 122.024 259.157C122.278 202.022 160.761 205.412 160.761 205.412" stroke="#E31D1C" stroke-width="5" stroke-linecap="round"/>
<path d="M308.746 307.176C308.746 307.176 377.119 316.141 376.866 259.006C376.612 201.872 338.128 205.261 338.128 205.261" stroke="#E31D1C" stroke-width="5" stroke-linecap="round"/>
<path d="M249.442 308.343C249.442 308.343 255.841 358.542 203.974 358.208C152.107 357.874 157.465 308.343 157.465 308.343" stroke="#E31D1C" stroke-width="5" stroke-linecap="round"/>
<path d="M250.214 308.345C250.214 308.345 243.815 358.544 295.682 358.21C347.549 357.876 342.192 308.345 342.192 308.345" stroke="#E31D1C" stroke-width="5" stroke-linecap="round"/>
<line x1="2.5" y1="-2.5" x2="52.3356" y2="-2.5" transform="matrix(0.744082 0.668088 -0.682179 0.731186 81.2217 100.065)" stroke="#F2F2F2" stroke-width="5" stroke-linecap="round"/>
<line x1="2.5" y1="-2.5" x2="52.3356" y2="-2.5" transform="matrix(-0.744082 0.668088 0.682179 0.731186 128.939 376.186)" stroke="#F2F2F2" stroke-width="5" stroke-linecap="round"/>
<line x1="42.2275" y1="260.389" x2="85.6369" y2="260.389" stroke="#F2F2F2" stroke-width="5" stroke-linecap="round"/>
<line x1="2.5" y1="-2.5" x2="89.1421" y2="-2.5" transform="matrix(0.271669 0.962391 -0.965024 0.262161 145.537 1.01611)" stroke="#F2F2F2" stroke-width="5" stroke-linecap="round"/>
<line x1="2.5" y1="-2.5" x2="89.1421" y2="-2.5" transform="matrix(-0.271669 0.962391 0.965024 0.262161 182.881 412.821)" stroke="#F2F2F2" stroke-width="5" stroke-linecap="round"/>
<line x1="2.5" y1="-2.5" x2="90.5291" y2="-2.5" transform="matrix(0.926915 0.37527 -0.387773 0.921755 1 160.448)" stroke="#F2F2F2" stroke-width="5" stroke-linecap="round"/>
<line x1="2.5" y1="-2.5" x2="90.5291" y2="-2.5" transform="matrix(-0.926915 0.37527 0.387773 0.921755 88.1367 323.268)" stroke="#F2F2F2" stroke-width="5" stroke-linecap="round"/>
<line x1="2.5" y1="-2.5" x2="52.3356" y2="-2.5" transform="matrix(-0.744082 0.668088 0.682179 0.731186 420.778 100.065)" stroke="#F2F2F2" stroke-width="5" stroke-linecap="round"/>
<line x1="2.5" y1="-2.5" x2="51.6997" y2="-2.5" transform="matrix(-0.0145608 0.999894 -0.999902 -0.014013 247.789 35.0161)" stroke="#F2F2F2" stroke-width="5" stroke-linecap="round"/>
<line x1="2.5" y1="-2.5" x2="51.6997" y2="-2.5" transform="matrix(-0.0145608 0.999894 -0.999902 -0.014013 248.295 412.821)" stroke="#F2F2F2" stroke-width="5" stroke-linecap="round"/>
<line x1="2.5" y1="-2.5" x2="52.3356" y2="-2.5" transform="matrix(0.744082 0.668088 -0.682179 0.731186 373.061 376.186)" stroke="#F2F2F2" stroke-width="5" stroke-linecap="round"/>
<line x1="2.5" y1="-2.5" x2="45.9094" y2="-2.5" transform="matrix(-1 -1.48488e-08 -1.54294e-08 1 462.272 262.889)" stroke="#F2F2F2" stroke-width="5" stroke-linecap="round"/>
<line x1="2.5" y1="-2.5" x2="89.1421" y2="-2.5" transform="matrix(-0.271669 0.962391 0.965024 0.262161 356.463 1.01611)" stroke="#F2F2F2" stroke-width="5" stroke-linecap="round"/>
<line x1="2.5" y1="-2.5" x2="89.1421" y2="-2.5" transform="matrix(0.271669 0.962391 -0.965024 0.262161 319.119 412.821)" stroke="#F2F2F2" stroke-width="5" stroke-linecap="round"/>
<line x1="2.5" y1="-2.5" x2="90.5291" y2="-2.5" transform="matrix(-0.926915 0.37527 0.387773 0.921755 501 160.448)" stroke="#F2F2F2" stroke-width="5" stroke-linecap="round"/>
<line x1="2.5" y1="-2.5" x2="90.5291" y2="-2.5" transform="matrix(0.926915 0.37527 -0.387773 0.921755 413.863 323.268)" stroke="#F2F2F2" stroke-width="5" stroke-linecap="round"/>
<path d="M21.4995 260.179C21.4995 254.272 26.2451 249.517 32.0574 249.517C37.8697 249.517 42.6152 254.272 42.6152 260.179C42.6152 266.086 37.8697 270.84 32.0574 270.84C26.2451 270.84 21.4995 266.086 21.4995 260.179Z" fill="#D9D9D9" stroke="#E31D1C" stroke-width="5"/>
<path d="M315.395 96.6259C315.395 90.7189 320.141 85.9642 325.953 85.9642C331.765 85.9642 336.511 90.7189 336.511 96.6259C336.511 102.533 331.765 107.288 325.953 107.288C320.141 107.288 315.395 102.533 315.395 96.6259Z" fill="#D9D9D9" stroke="#E31D1C" stroke-width="5"/>
<path d="M66.4322 91.4833C66.4322 85.5763 71.1777 80.8216 76.99 80.8216C82.8023 80.8216 87.5479 85.5763 87.5479 91.4833C87.5479 97.3903 82.8023 102.145 76.99 102.145C71.1777 102.145 66.4322 97.3903 66.4322 91.4833Z" fill="#D9D9D9" stroke="#E31D1C" stroke-width="5"/>
<path d="M414.288 91.4833C414.288 85.5763 419.034 80.8216 424.846 80.8216C430.658 80.8216 435.404 85.5763 435.404 91.4833C435.404 97.3903 430.658 102.145 424.846 102.145C419.034 102.145 414.288 97.3903 414.288 91.4833Z" fill="#D9D9D9" stroke="#E31D1C" stroke-width="5"/>
<path d="M309.554 403.237C309.554 397.33 314.299 392.575 320.112 392.575C325.924 392.575 330.669 397.33 330.669 403.237C330.669 409.144 325.924 413.899 320.112 413.899C314.299 413.899 309.554 409.144 309.554 403.237Z" fill="#D9D9D9" stroke="#E31D1C" stroke-width="5"/>
<path d="M460.314 259.77C460.314 253.863 465.06 249.109 470.872 249.109C476.685 249.109 481.43 253.863 481.43 259.77C481.43 265.677 476.685 270.432 470.872 270.432C465.06 270.432 460.314 265.677 460.314 259.77Z" fill="#D9D9D9" stroke="#E31D1C" stroke-width="5"/>
<path d="M239.5 475.179C239.5 469.272 244.245 464.517 250.057 464.517C255.87 464.517 260.615 469.272 260.615 475.179C260.615 481.086 255.87 485.84 250.057 485.84C244.245 485.84 239.5 481.086 239.5 475.179Z" fill="#D9D9D9" stroke="#E31D1C" stroke-width="5"/>
<path d="M411.288 414.806C411.288 408.899 416.034 404.144 421.846 404.144C427.658 404.144 432.404 408.899 432.404 414.806C432.404 420.713 427.658 425.467 421.846 425.467C416.034 425.467 411.288 420.713 411.288 414.806Z" fill="#D9D9D9" stroke="#E31D1C" stroke-width="5"/>
<path d="M69.5074 415.841C69.5074 409.934 74.2529 405.179 80.0652 405.179C85.8775 405.179 90.623 409.934 90.623 415.841C90.623 421.748 85.8775 426.502 80.0652 426.502C74.2529 426.502 69.5074 421.748 69.5074 415.841Z" fill="#D9D9D9" stroke="#E31D1C" stroke-width="5"/>
<path d="M172.242 403.237C172.242 397.33 176.987 392.575 182.8 392.575C188.612 392.575 193.357 397.33 193.357 403.237C193.357 409.144 188.612 413.899 182.8 413.899C176.987 413.899 172.242 409.144 172.242 403.237Z" fill="#D9D9D9" stroke="#E31D1C" stroke-width="5"/>
<path d="M83.7964 315.755C83.7964 309.848 88.542 305.093 94.3543 305.093C100.167 305.093 104.912 309.848 104.912 315.755C104.912 321.662 100.167 326.417 94.3543 326.417C88.542 326.417 83.7964 321.662 83.7964 315.755Z" fill="#D9D9D9" stroke="#E31D1C" stroke-width="5"/>
<path d="M396.616 315.755C396.616 309.848 401.362 305.093 407.174 305.093C412.986 305.093 417.732 309.848 417.732 315.755C417.732 321.662 412.986 326.417 407.174 326.417C401.362 326.417 396.616 321.662 396.616 315.755Z" fill="#D9D9D9" stroke="#E31D1C" stroke-width="5"/>
<path d="M164.5 97.1786C164.5 91.2716 169.245 86.5169 175.057 86.5169C180.87 86.5169 185.615 91.2716 185.615 97.1786C185.615 103.086 180.87 107.84 175.057 107.84C169.245 107.84 164.5 103.086 164.5 97.1786Z" fill="#D9D9D9" stroke="#E31D1C" stroke-width="5"/>
<path d="M239.5 26.1786C239.5 20.2716 244.245 15.5169 250.057 15.5169C255.87 15.5169 260.615 20.2716 260.615 26.1786C260.615 32.0856 255.87 36.8403 250.057 36.8403C244.245 36.8403 239.5 32.0856 239.5 26.1786Z" fill="#D9D9D9" stroke="#E31D1C" stroke-width="5"/>
<path d="M395.542 194.997C395.542 189.09 400.288 184.335 406.1 184.335C411.912 184.335 416.658 189.09 416.658 194.997C416.658 200.904 411.912 205.659 406.1 205.659C400.288 205.659 395.542 200.904 395.542 194.997Z" fill="#D9D9D9" stroke="#E31D1C" stroke-width="5"/>
<path d="M85.8706 195.997C85.8706 190.09 90.6162 185.335 96.4285 185.335C102.241 185.335 106.986 190.09 106.986 195.997C106.986 201.904 102.241 206.659 96.4285 206.659C90.6162 206.659 85.8706 201.904 85.8706 195.997Z" fill="#D9D9D9" stroke="#E31D1C" stroke-width="5"/>
</svg>
