<svg width="1720" height="657" viewBox="0 0 1720 657" fill="none" xmlns="http://www.w3.org/2000/svg">
  <path
    d="M582.639 125.202L1.07198 656.785H1718.78L1408.17 324.067L1226.94 268.744L1091.49 315.079L1015.51 264.397L784.256 52.5576L582.639 125.202Z"
    fill="black" />
  <path
    d="M0.989213 656.385L583.856 124.225L783.864 51.9642L785.146 51.5107L785.128 53.1338L784.345 124.085L720.491 208.18L601.151 238.547L704.924 397.527L516.402 329.647L464.514 485.056L255.238 524.354L0.989213 656.385Z"
    fill="url(#paint0_linear_180_1127)" />
  <path
    d="M516.4 329.641L464.428 485.295L543.159 381.101L692.461 410.948L815.59 538.177L936.785 470.132L648.43 283.256L601.224 238.611L704.686 397.243L516.4 329.641Z"
    fill="#201A1B" />
  <path
    d="M1011.1 558.301L815.64 538.151L1026.99 419.473L1092.37 314.351L1228.16 268.086L1408.64 323.214L1365.28 370.547L1277.81 436.142L1204.83 462.876L1107.28 473.204L1011.1 558.301Z"
    fill="url(#paint1_linear_180_1127)" />
  <path
    d="M255.386 524.25L85.3984 653.95L268.461 606.244L414.603 653.95L337.686 557.047L540.746 653.95L426.14 522.758L679.196 653.95L528.439 495.923L831.491 653.95L799.186 588.354L953.019 653.95L911.484 584.627L1059.93 653.95L1037.63 565.992L1216.84 653.95L1140.7 544.375L1336.06 653.95L1212.23 492.196L1460.67 653.95L1293.76 451.944L1599.28 653.938L1365.34 370.487L1277.8 436.104L1204.81 462.879L1105.83 473.153L1011.06 557.942L815.59 538.164L704.671 397.28L540.746 375.896L464.63 485L255.386 524.25Z"
    fill="#161214" />
  <path d="M1408.42 322.313L1365.32 370.893L1599.28 656.729H1720L1408.42 322.313Z" fill="#161214" />
  <rect x="1.0957" y="202.615" width="1718.91" height="454" fill="url(#paint2_linear_180_1127)" />
  <path
    d="M721.229 208.619L784.423 123.994L785.146 51.5049L785.795 52.0791L1016.3 263.253L1092.43 314.343L1027.09 419.063L936.246 470.087L714.497 400.448L601.257 238.518L721.229 208.619Z"
    fill="url(#paint3_linear_180_1127)" fill-opacity="0.5" />
  <path
    d="M727.971 223.274L936.773 470.133L647.928 283.216L601.093 238.503L720.484 208.14L784.355 124.069L1025.74 418.346L727.971 223.274Z"
    fill="#161214" />
  <path
    d="M584.03 124.755L0.99707 656.633V0.680664H1720V656.71L1408.41 323.839L1228.23 268.785L1092.27 315.099L1015.99 264.051L785.128 51.4762L584.03 124.755Z"
    fill="url(#paint4_linear_180_1127)" />
  <defs>
    <linearGradient id="paint0_linear_180_1127" x1="314.217" y1="314.301" x2="565.018" y2="597.424"
      gradientUnits="userSpaceOnUse">
      <stop stop-color="white" />
      <stop offset="1" stop-color="#1B1718" stop-opacity="0.96" />
    </linearGradient>
    <linearGradient id="paint1_linear_180_1127" x1="948.96" y1="342.733" x2="1177.07" y2="577.363"
      gradientUnits="userSpaceOnUse">
      <stop stop-color="white" />
      <stop offset="1" stop-color="#1B1718" stop-opacity="0.96" />
    </linearGradient>
    <linearGradient id="paint2_linear_180_1127" x1="860.548" y1="238.712" x2="860.549" y2="656.615"
      gradientUnits="userSpaceOnUse">
      <stop stop-opacity="0" />
      <stop offset="0.988572" />
    </linearGradient>
    <linearGradient id="paint3_linear_180_1127" x1="1122.5" y1="8.9207" x2="654.537" y2="352.497"
      gradientUnits="userSpaceOnUse">
      <stop stop-color="white" />
      <stop offset="1" stop-color="white" stop-opacity="0" />
    </linearGradient>
    <linearGradient id="paint4_linear_180_1127" x1="860.499" y1="0.680664" x2="860.5" y2="668.005"
      gradientUnits="userSpaceOnUse">
      <stop stop-opacity="0" />
      <stop offset="0.988572" stop-color="#E31D1C" stop-opacity="0.78" />
    </linearGradient>
  </defs>
</svg>