<svg width="1718" height="669" viewBox="0 0 1718 669" fill="none" xmlns="http://www.w3.org/2000/svg">
<path d="M719.231 209.622L782.426 124.997V53.063L784.317 53.5821L1014.3 264.256L1090.43 315.347L1025.09 420.067L934.248 471.091L712.5 401.451L599.26 239.521L719.231 209.622Z" fill="url(#paint0_linear_151_1925)" fill-opacity="0.5"/>
<path d="M-1 668.265L581.864 125.228L779.554 53.8384H782.493V56.5153V125.228L718.499 209.184L599.159 239.551L702.933 398.532L514.41 330.652L462.524 486.061L253.246 525.359L-1 668.265Z" fill="url(#paint1_linear_151_1925)"/>
<path d="M725.974 224.278L934.616 470.992L645.931 284.219L599.235 239.524L719.575 209.253L782.359 125.073L1023.75 419.35L725.974 224.278Z" fill="#161214"/>
<path d="M514.478 330.753L462.87 486.121L531.513 386.238L690.464 411.952L813.811 539.096L934.527 471.131L646.433 284.259L599.227 239.615L702.689 398.247L514.478 330.753Z" fill="#201A1B"/>
<path d="M1009.1 559.305L814.33 539.147L1024.99 420.477L1090.38 315.355L1226.16 269.09L1406.64 324.218L1363.28 371.551L1275.81 437.146L1202.84 463.88L1105.28 474.208L1009.1 559.305Z" fill="url(#paint2_linear_151_1925)"/>
<path d="M253.389 525.253L83.4014 654.954L266.464 607.248L412.606 654.954L335.689 558.051L538.749 654.954L424.143 523.762L677.199 654.954L526.442 496.927L829.494 654.954L797.189 589.358L951.022 654.954L909.487 585.631L1057.94 654.954L1035.63 566.995L1214.85 654.954L1138.7 545.379L1334.07 654.954L1210.23 493.2L1458.67 654.954L1291.76 452.948L1597.12 654.954L1364.88 370.309L1277.39 436.057L1203.79 463.881L1103.83 474.156L1009.06 558.945L813.593 539.167L702.674 398.284L538.749 376.9L462.633 486.003L253.389 525.253Z" fill="#161214"/>
<path d="M1406.43 323.317L1364.27 370.558L1597.29 654.954H1718L1406.43 323.317Z" fill="#161214"/>
<rect x="0.00390625" y="214.265" width="1717.5" height="454" fill="url(#paint3_linear_151_1925)"/>
<path d="M582.033 125.014L0.00685012 667.519L-1 0.939941H1718V657.262L1406.41 324.098L1226.23 269.045L1090.27 315.358L1013.99 264.31L783.159 52.5085L582.033 125.014Z" fill="url(#paint4_linear_151_1925)"/>
<defs>
<linearGradient id="paint0_linear_151_1925" x1="1120.5" y1="10.5352" x2="652.975" y2="354.248" gradientUnits="userSpaceOnUse">
<stop stop-color="white"/>
<stop offset="1" stop-color="white" stop-opacity="0"/>
</linearGradient>
<linearGradient id="paint1_linear_151_1925" x1="312.22" y1="315.304" x2="563.021" y2="598.427" gradientUnits="userSpaceOnUse">
<stop stop-color="white"/>
<stop offset="1" stop-color="#1B1718" stop-opacity="0.96"/>
</linearGradient>
<linearGradient id="paint2_linear_151_1925" x1="946.963" y1="343.736" x2="1175.07" y2="578.367" gradientUnits="userSpaceOnUse">
<stop stop-color="white"/>
<stop offset="1" stop-color="#1B1718" stop-opacity="0.96"/>
</linearGradient>
<linearGradient id="paint3_linear_151_1925" x1="858.753" y1="250.361" x2="858.753" y2="668.265" gradientUnits="userSpaceOnUse">
<stop stop-opacity="0"/>
<stop offset="0.988572"/>
</linearGradient>
<linearGradient id="paint4_linear_151_1925" x1="858.502" y1="0.939941" x2="858.502" y2="668.264" gradientUnits="userSpaceOnUse">
<stop stop-opacity="0"/>
<stop offset="0.988572" stop-color="#E31D1C" stop-opacity="0.78"/>
</linearGradient>
</defs>
</svg>
