<svg width="392" height="300" viewBox="0 0 392 300" fill="none" xmlns="http://www.w3.org/2000/svg">
<rect x="0.5" y="38.5" width="166" height="222" rx="11.5" fill="black"/>
<rect x="6.30176" y="43.7178" width="154.396" height="172.968" rx="10" fill="url(#paint0_linear_232_724)"/>
<g filter="url(#filter0_d_232_724)">
<path d="M21.0419 241.218C20.1465 241.218 19.3532 241.06 18.6619 240.742C17.9705 240.425 17.4265 239.96 17.0299 239.348C16.6445 238.725 16.4519 237.971 16.4519 237.087V236.662H18.2709V237.087C18.2709 237.926 18.5202 238.555 19.0189 238.974C19.5289 239.394 20.2032 239.603 21.0419 239.603C21.8919 239.603 22.5322 239.428 22.9629 239.076C23.3935 238.714 23.6089 238.249 23.6089 237.682C23.6089 237.308 23.5069 237.002 23.3029 236.764C23.0989 236.526 22.8099 236.339 22.4359 236.203C22.0619 236.056 21.6142 235.92 21.0929 235.795L20.4639 235.642C19.7045 235.461 19.0415 235.24 18.4749 234.979C17.9195 234.707 17.4889 234.35 17.1829 233.908C16.8769 233.466 16.7239 232.9 16.7239 232.208C16.7239 231.506 16.8939 230.905 17.2339 230.406C17.5852 229.908 18.0669 229.522 18.6789 229.25C19.2909 228.978 20.0105 228.842 20.8379 228.842C21.6652 228.842 22.4019 228.984 23.0479 229.267C23.7052 229.551 24.2209 229.97 24.5949 230.525C24.9689 231.081 25.1559 231.778 25.1559 232.616V233.228H23.3369V232.616C23.3369 232.106 23.2292 231.693 23.0139 231.375C22.8099 231.058 22.5209 230.826 22.1469 230.678C21.7729 230.531 21.3365 230.457 20.8379 230.457C20.1125 230.457 19.5459 230.61 19.1379 230.916C18.7412 231.211 18.5429 231.625 18.5429 232.157C18.5429 232.52 18.6279 232.82 18.7979 233.058C18.9792 233.285 19.2399 233.472 19.5799 233.619C19.9199 233.767 20.3449 233.897 20.8549 234.01L21.4839 234.163C22.2545 234.333 22.9345 234.554 23.5239 234.826C24.1132 235.087 24.5779 235.444 24.9179 235.897C25.2579 236.351 25.4279 236.934 25.4279 237.648C25.4279 238.362 25.2465 238.986 24.8839 239.518C24.5325 240.051 24.0282 240.47 23.3709 240.776C22.7135 241.071 21.9372 241.218 21.0419 241.218ZM26.7263 240.98V232.599H28.4773V240.98H26.7263ZM27.6103 231.46C27.2703 231.46 26.9813 231.353 26.7433 231.137C26.5166 230.911 26.4033 230.622 26.4033 230.27C26.4033 229.919 26.5166 229.636 26.7433 229.42C26.9813 229.194 27.2703 229.08 27.6103 229.08C27.9616 229.08 28.2506 229.194 28.4773 229.42C28.7039 229.636 28.8173 229.919 28.8173 230.27C28.8173 230.622 28.7039 230.911 28.4773 231.137C28.2506 231.353 27.9616 231.46 27.6103 231.46ZM30.3959 240.98V229.08H32.1469V240.98H30.3959ZM36.0035 240.98L33.1815 232.599H35.0345L37.2615 239.688H37.5335L39.7605 232.599H41.6135L38.7915 240.98H36.0035ZM46.1757 241.218C45.3257 241.218 44.5834 241.043 43.9487 240.691C43.3141 240.329 42.8154 239.824 42.4527 239.178C42.1014 238.521 41.9257 237.762 41.9257 236.9V236.696C41.9257 235.824 42.1014 235.064 42.4527 234.418C42.8041 233.761 43.2914 233.257 43.9147 232.905C44.5494 232.543 45.2804 232.361 46.1077 232.361C46.9124 232.361 47.6151 232.543 48.2157 232.905C48.8277 233.257 49.3037 233.75 49.6437 234.384C49.9837 235.019 50.1537 235.761 50.1537 236.611V237.274H43.7107C43.7334 238.011 43.9771 238.6 44.4417 239.042C44.9177 239.473 45.5071 239.688 46.2097 239.688C46.8671 239.688 47.3601 239.541 47.6887 239.246C48.0287 238.952 48.2894 238.612 48.4707 238.226L49.9157 238.974C49.7571 239.292 49.5247 239.626 49.2187 239.977C48.9241 240.329 48.5331 240.623 48.0457 240.861C47.5584 241.099 46.9351 241.218 46.1757 241.218ZM43.7277 235.931H48.3687C48.3234 235.297 48.0967 234.804 47.6887 234.452C47.2807 234.09 46.7481 233.908 46.0907 233.908C45.4334 233.908 44.8951 234.09 44.4757 234.452C44.0677 234.804 43.8184 235.297 43.7277 235.931ZM51.5815 240.98V232.599H53.2985V233.585H53.5705C53.7065 233.234 53.9218 232.979 54.2165 232.82C54.5225 232.65 54.8965 232.565 55.3385 232.565H56.3415V234.146H55.2705C54.7038 234.146 54.2391 234.305 53.8765 234.622C53.5138 234.928 53.3325 235.404 53.3325 236.05V240.98H51.5815Z" fill="white"/>
</g>
<rect x="0.5" y="38.5" width="166" height="222" rx="11.5" stroke="url(#paint1_radial_232_724)"/>
<rect x="0.5" y="38.5" width="166" height="222" rx="11.5" stroke="url(#paint2_radial_232_724)"/>
<rect x="0.5" y="38.5" width="166" height="222" rx="11.5" stroke="url(#paint3_radial_232_724)"/>
<rect x="225.5" y="38.5" width="166" height="222" rx="11.5" fill="black"/>
<rect x="231.302" y="43.7178" width="154.396" height="172.968" rx="10" fill="url(#paint4_linear_232_724)"/>
<g filter="url(#filter1_d_232_724)">
<path d="M321.799 240V238.368H323.397V229.732H321.799V228.1H327.834C328.548 228.1 329.171 228.225 329.704 228.474C330.237 228.712 330.65 229.058 330.945 229.511C331.251 229.953 331.404 230.48 331.404 231.092V231.262C331.404 231.806 331.302 232.254 331.098 232.605C330.894 232.956 330.645 233.228 330.35 233.421C330.067 233.614 329.795 233.75 329.534 233.829V234.101C329.795 234.169 330.072 234.305 330.367 234.509C330.673 234.702 330.928 234.974 331.132 235.325C331.347 235.676 331.455 236.135 331.455 236.702V236.872C331.455 237.529 331.302 238.09 330.996 238.555C330.69 239.02 330.265 239.377 329.721 239.626C329.188 239.875 328.571 240 327.868 240H321.799ZM325.25 238.334H327.647C328.259 238.334 328.741 238.187 329.092 237.892C329.443 237.597 329.619 237.189 329.619 236.668V236.515C329.619 235.994 329.443 235.586 329.092 235.291C328.752 234.996 328.27 234.849 327.647 234.849H325.25V238.334ZM325.25 233.166H327.647C328.225 233.166 328.69 233.024 329.041 232.741C329.392 232.446 329.568 232.05 329.568 231.551V231.381C329.568 230.882 329.392 230.491 329.041 230.208C328.701 229.913 328.236 229.766 327.647 229.766H325.25V233.166ZM332.884 240V231.619H334.601V232.605H334.873C335.009 232.254 335.225 231.999 335.519 231.84C335.825 231.67 336.199 231.585 336.641 231.585H337.644V233.166H336.573C336.007 233.166 335.542 233.325 335.179 233.642C334.817 233.948 334.635 234.424 334.635 235.07V240H332.884ZM342.407 240.238C341.568 240.238 340.82 240.068 340.163 239.728C339.517 239.377 339.007 238.878 338.633 238.232C338.259 237.586 338.072 236.821 338.072 235.937V235.682C338.072 234.798 338.259 234.039 338.633 233.404C339.007 232.758 339.517 232.259 340.163 231.908C340.82 231.557 341.568 231.381 342.407 231.381C343.246 231.381 343.994 231.557 344.651 231.908C345.308 232.259 345.824 232.758 346.198 233.404C346.572 234.039 346.759 234.798 346.759 235.682V235.937C346.759 236.821 346.572 237.586 346.198 238.232C345.824 238.878 345.308 239.377 344.651 239.728C343.994 240.068 343.246 240.238 342.407 240.238ZM342.407 238.674C343.178 238.674 343.801 238.43 344.277 237.943C344.764 237.444 345.008 236.759 345.008 235.886V235.733C345.008 234.86 344.77 234.18 344.294 233.693C343.818 233.194 343.189 232.945 342.407 232.945C341.648 232.945 341.024 233.194 340.537 233.693C340.061 234.18 339.823 234.86 339.823 235.733V235.886C339.823 236.759 340.061 237.444 340.537 237.943C341.024 238.43 341.648 238.674 342.407 238.674ZM348.259 240V231.619H349.976V232.877H350.248C350.407 232.537 350.69 232.22 351.098 231.925C351.506 231.63 352.112 231.483 352.917 231.483C353.552 231.483 354.113 231.625 354.6 231.908C355.099 232.191 355.49 232.594 355.773 233.115C356.056 233.625 356.198 234.243 356.198 234.968V240H354.447V235.104C354.447 234.379 354.266 233.846 353.903 233.506C353.54 233.155 353.042 232.979 352.407 232.979C351.682 232.979 351.098 233.217 350.656 233.693C350.225 234.169 350.01 234.86 350.01 235.767V240H348.259ZM357.698 240V237.858L362.645 233.336V233.098H357.868V231.619H364.549V233.778L359.585 238.3V238.521H364.685V240H357.698ZM369.783 240.238C368.933 240.238 368.19 240.062 367.556 239.711C366.921 239.348 366.422 238.844 366.06 238.198C365.708 237.541 365.533 236.781 365.533 235.92V235.716C365.533 234.843 365.708 234.084 366.06 233.438C366.411 232.781 366.898 232.276 367.522 231.925C368.156 231.562 368.887 231.381 369.715 231.381C370.519 231.381 371.222 231.562 371.823 231.925C372.435 232.276 372.911 232.769 373.251 233.404C373.591 234.039 373.761 234.781 373.761 235.631V236.294H367.318C367.34 237.031 367.584 237.62 368.049 238.062C368.525 238.493 369.114 238.708 369.817 238.708C370.474 238.708 370.967 238.561 371.296 238.266C371.636 237.971 371.896 237.631 372.078 237.246L373.523 237.994C373.364 238.311 373.132 238.646 372.826 238.997C372.531 239.348 372.14 239.643 371.653 239.881C371.165 240.119 370.542 240.238 369.783 240.238ZM367.335 234.951H371.976C371.93 234.316 371.704 233.823 371.296 233.472C370.888 233.109 370.355 232.928 369.698 232.928C369.04 232.928 368.502 233.109 368.083 233.472C367.675 233.823 367.425 234.316 367.335 234.951Z" fill="white"/>
</g>
<rect x="225.5" y="38.5" width="166" height="222" rx="11.5" stroke="url(#paint5_radial_232_724)"/>
<rect x="225.5" y="38.5" width="166" height="222" rx="11.5" stroke="url(#paint6_radial_232_724)"/>
<rect x="225.5" y="38.5" width="166" height="222" rx="11.5" stroke="url(#paint7_radial_232_724)"/>
<rect x="84.5" y="0.5" width="224" height="299" rx="11.5" fill="black"/>
<rect x="92.4902" y="7.69238" width="208.019" height="232.692" rx="10" fill="url(#paint8_linear_232_724)"/>
<g filter="url(#filter2_d_232_724)">
<path d="M110.599 275.853C109.749 275.853 108.989 275.672 108.321 275.309C107.652 274.935 107.125 274.391 106.74 273.677C106.354 272.963 106.162 272.091 106.162 271.059V268.271C106.162 266.719 106.587 265.534 107.437 264.718C108.287 263.891 109.437 263.477 110.888 263.477C112.316 263.477 113.415 263.868 114.186 264.65C114.956 265.421 115.342 266.458 115.342 267.761V267.846H113.523V267.71C113.523 267.223 113.426 266.787 113.234 266.401C113.041 266.005 112.752 265.693 112.367 265.466C111.981 265.24 111.488 265.126 110.888 265.126C109.981 265.126 109.273 265.404 108.763 265.959C108.253 266.503 107.998 267.263 107.998 268.237V271.093C107.998 272.057 108.253 272.822 108.763 273.388C109.273 273.944 109.987 274.221 110.905 274.221C111.811 274.221 112.474 273.972 112.894 273.473C113.313 272.975 113.523 272.329 113.523 271.535V271.314H110.327V269.733H115.342V275.615H113.642V274.408H113.37C113.268 274.624 113.115 274.845 112.911 275.071C112.718 275.298 112.435 275.485 112.061 275.632C111.698 275.78 111.211 275.853 110.599 275.853ZM121.005 275.853C120.166 275.853 119.418 275.683 118.761 275.343C118.115 274.992 117.605 274.493 117.231 273.847C116.857 273.201 116.67 272.436 116.67 271.552V271.297C116.67 270.413 116.857 269.654 117.231 269.019C117.605 268.373 118.115 267.875 118.761 267.523C119.418 267.172 120.166 266.996 121.005 266.996C121.843 266.996 122.591 267.172 123.249 267.523C123.906 267.875 124.422 268.373 124.796 269.019C125.17 269.654 125.357 270.413 125.357 271.297V271.552C125.357 272.436 125.17 273.201 124.796 273.847C124.422 274.493 123.906 274.992 123.249 275.343C122.591 275.683 121.843 275.853 121.005 275.853ZM121.005 274.289C121.775 274.289 122.399 274.046 122.875 273.558C123.362 273.06 123.606 272.374 123.606 271.501V271.348C123.606 270.476 123.368 269.796 122.892 269.308C122.416 268.81 121.787 268.56 121.005 268.56C120.245 268.56 119.622 268.81 119.135 269.308C118.659 269.796 118.421 270.476 118.421 271.348V271.501C118.421 272.374 118.659 273.06 119.135 273.558C119.622 274.046 120.245 274.289 121.005 274.289ZM126.857 275.615V263.715H128.608V275.615H126.857ZM133.994 275.853C133.303 275.853 132.663 275.683 132.073 275.343C131.484 275.003 131.008 274.516 130.645 273.881C130.294 273.235 130.118 272.459 130.118 271.552V271.297C130.118 270.402 130.294 269.631 130.645 268.985C130.997 268.339 131.467 267.846 132.056 267.506C132.646 267.166 133.292 266.996 133.994 266.996C134.538 266.996 134.992 267.064 135.354 267.2C135.728 267.336 136.034 267.512 136.272 267.727C136.51 267.931 136.692 268.147 136.816 268.373H137.088V263.715H138.839V275.615H137.122V274.425H136.85C136.635 274.788 136.306 275.117 135.864 275.411C135.434 275.706 134.81 275.853 133.994 275.853ZM134.487 274.323C135.247 274.323 135.87 274.08 136.357 273.592C136.856 273.105 137.105 272.408 137.105 271.501V271.348C137.105 270.453 136.862 269.762 136.374 269.274C135.887 268.787 135.258 268.543 134.487 268.543C133.739 268.543 133.116 268.787 132.617 269.274C132.13 269.762 131.886 270.453 131.886 271.348V271.501C131.886 272.408 132.13 273.105 132.617 273.592C133.116 274.08 133.739 274.323 134.487 274.323Z" fill="white"/>
</g>
<rect x="84.5" y="0.5" width="224" height="299" rx="11.5" stroke="url(#paint9_radial_232_724)"/>
<rect x="84.5" y="0.5" width="224" height="299" rx="11.5" stroke="url(#paint10_radial_232_724)"/>
<rect x="84.5" y="0.5" width="224" height="299" rx="11.5" stroke="url(#paint11_radial_232_724)"/>
<defs>
<filter id="filter0_d_232_724" x="15.4521" y="228.843" width="41.8896" height="15.376" filterUnits="userSpaceOnUse" color-interpolation-filters="sRGB">
<feFlood flood-opacity="0" result="BackgroundImageFix"/>
<feColorMatrix in="SourceAlpha" type="matrix" values="0 0 0 0 0 0 0 0 0 0 0 0 0 0 0 0 0 0 127 0" result="hardAlpha"/>
<feOffset dy="2"/>
<feGaussianBlur stdDeviation="0.5"/>
<feComposite in2="hardAlpha" operator="out"/>
<feColorMatrix type="matrix" values="0 0 0 0 0 0 0 0 0 0 0 0 0 0 0 0 0 0 0.25 0"/>
<feBlend mode="normal" in2="BackgroundImageFix" result="effect1_dropShadow_232_724"/>
<feBlend mode="normal" in="SourceGraphic" in2="effect1_dropShadow_232_724" result="shape"/>
</filter>
<filter id="filter1_d_232_724" x="320.799" y="228.1" width="53.9619" height="15.1387" filterUnits="userSpaceOnUse" color-interpolation-filters="sRGB">
<feFlood flood-opacity="0" result="BackgroundImageFix"/>
<feColorMatrix in="SourceAlpha" type="matrix" values="0 0 0 0 0 0 0 0 0 0 0 0 0 0 0 0 0 0 127 0" result="hardAlpha"/>
<feOffset dy="2"/>
<feGaussianBlur stdDeviation="0.5"/>
<feComposite in2="hardAlpha" operator="out"/>
<feColorMatrix type="matrix" values="0 0 0 0 0 0 0 0 0 0 0 0 0 0 0 0 0 0 0.25 0"/>
<feBlend mode="normal" in2="BackgroundImageFix" result="effect1_dropShadow_232_724"/>
<feBlend mode="normal" in="SourceGraphic" in2="effect1_dropShadow_232_724" result="shape"/>
</filter>
<filter id="filter2_d_232_724" x="105.161" y="263.478" width="34.6787" height="15.376" filterUnits="userSpaceOnUse" color-interpolation-filters="sRGB">
<feFlood flood-opacity="0" result="BackgroundImageFix"/>
<feColorMatrix in="SourceAlpha" type="matrix" values="0 0 0 0 0 0 0 0 0 0 0 0 0 0 0 0 0 0 127 0" result="hardAlpha"/>
<feOffset dy="2"/>
<feGaussianBlur stdDeviation="0.5"/>
<feComposite in2="hardAlpha" operator="out"/>
<feColorMatrix type="matrix" values="0 0 0 0 0 0 0 0 0 0 0 0 0 0 0 0 0 0 0.25 0"/>
<feBlend mode="normal" in2="BackgroundImageFix" result="effect1_dropShadow_232_724"/>
<feBlend mode="normal" in="SourceGraphic" in2="effect1_dropShadow_232_724" result="shape"/>
</filter>
<linearGradient id="paint0_linear_232_724" x1="81.1839" y1="43.7178" x2="81.1839" y2="216.686" gradientUnits="userSpaceOnUse">
<stop offset="0.362709" stop-color="#D7E0E7"/>
<stop offset="0.773736" stop-color="#F6F7F9"/>
</linearGradient>
<radialGradient id="paint1_radial_232_724" cx="0" cy="0" r="1" gradientUnits="userSpaceOnUse" gradientTransform="translate(202.565 122.273) rotate(167.922) scale(278.836 149.515)">
<stop stop-color="white"/>
<stop offset="1" stop-color="white" stop-opacity="0"/>
</radialGradient>
<radialGradient id="paint2_radial_232_724" cx="0" cy="0" r="1" gradientUnits="userSpaceOnUse" gradientTransform="translate(-14.9475 -91.6512) rotate(52.3966) scale(226.381 150.786)">
<stop stop-color="white"/>
<stop offset="1" stop-color="white" stop-opacity="0"/>
</radialGradient>
<radialGradient id="paint3_radial_232_724" cx="0" cy="0" r="1" gradientUnits="userSpaceOnUse" gradientTransform="translate(-67.0062 339.223) rotate(-11.5776) scale(208.876 111.84)">
<stop stop-color="white"/>
<stop offset="1" stop-color="white" stop-opacity="0"/>
</radialGradient>
<linearGradient id="paint4_linear_232_724" x1="306.184" y1="43.7178" x2="306.184" y2="216.686" gradientUnits="userSpaceOnUse">
<stop offset="0.0197451" stop-color="#705139"/>
<stop offset="0.749924" stop-color="#FBE6BF"/>
</linearGradient>
<radialGradient id="paint5_radial_232_724" cx="0" cy="0" r="1" gradientUnits="userSpaceOnUse" gradientTransform="translate(427.565 122.273) rotate(167.922) scale(278.836 149.515)">
<stop stop-color="white"/>
<stop offset="1" stop-color="white" stop-opacity="0"/>
</radialGradient>
<radialGradient id="paint6_radial_232_724" cx="0" cy="0" r="1" gradientUnits="userSpaceOnUse" gradientTransform="translate(210.052 -91.6512) rotate(52.3966) scale(226.381 150.786)">
<stop stop-color="white"/>
<stop offset="1" stop-color="white" stop-opacity="0"/>
</radialGradient>
<radialGradient id="paint7_radial_232_724" cx="0" cy="0" r="1" gradientUnits="userSpaceOnUse" gradientTransform="translate(157.994 339.223) rotate(-11.5776) scale(208.876 111.84)">
<stop stop-color="white"/>
<stop offset="1" stop-color="white" stop-opacity="0"/>
</radialGradient>
<linearGradient id="paint8_linear_232_724" x1="193.379" y1="7.69237" x2="193.379" y2="240.385" gradientUnits="userSpaceOnUse">
<stop offset="0.291448" stop-color="#E1A254"/>
<stop offset="0.773736" stop-color="#F2CF94"/>
</linearGradient>
<radialGradient id="paint9_radial_232_724" cx="0" cy="0" r="1" gradientUnits="userSpaceOnUse" gradientTransform="translate(356.917 113.372) rotate(167.94) scale(375.652 201.155)">
<stop stop-color="white"/>
<stop offset="1" stop-color="white" stop-opacity="0"/>
</radialGradient>
<radialGradient id="paint10_radial_232_724" cx="0" cy="0" r="1" gradientUnits="userSpaceOnUse" gradientTransform="translate(63.8611 -174.419) rotate(52.3551) scale(304.718 203.041)">
<stop stop-color="white"/>
<stop offset="1" stop-color="white" stop-opacity="0"/>
</radialGradient>
<radialGradient id="paint11_radial_232_724" cx="0" cy="0" r="1" gradientUnits="userSpaceOnUse" gradientTransform="translate(-6.27777 405.233) rotate(-11.5608) scale(281.403 150.466)">
<stop stop-color="white"/>
<stop offset="1" stop-color="white" stop-opacity="0"/>
</radialGradient>
</defs>
</svg>
